<svg width="241" height="194" viewBox="0 0 241 194" fill="none" xmlns="http://www.w3.org/2000/svg">
<path fill-rule="evenodd" clip-rule="evenodd" d="M19.9323 129.516L23.9427 134.309C23.9427 134.309 21.6678 134.481 19.4623 134.658C18.6934 134.716 17.9297 134.776 17.2782 134.829C15.5427 134.969 10.8327 134.036 8.05044 133.44C8.03976 133.435 8.03442 133.435 8.02908 133.435C6.76881 133.162 5.90905 132.958 5.90905 132.958C5.90905 132.958 4.48857 131.243 3.30306 129.773C3.07343 129.489 2.85448 129.215 2.65156 128.964C2.35785 128.594 2.04278 127.978 1.73305 127.248C0.750467 124.922 -0.141337 121.399 0.0188677 120.767C0.221793 119.936 8.85147 101.519 14.8057 91.0696C15.3985 90.0301 15.9859 89.0591 16.568 88.1482C21.1445 80.9587 25.1442 77.7151 25.1442 77.7151C25.1763 77.9885 25.203 78.2668 25.2243 78.5563C25.7797 86.186 22.6718 99.9748 20.1299 109.647C18.4797 115.946 17.0699 120.514 17.0699 120.514C17.0699 120.514 17.0593 120.503 17.0486 120.487C17.0165 120.45 16.9578 120.386 16.8777 120.289C16.851 120.252 16.8136 120.214 16.7762 120.171C16.7068 120.096 16.6374 120.005 16.5466 119.908C16.4772 119.823 16.4024 119.737 16.3277 119.651L15.2116 123.881L19.9269 129.51L19.9323 129.516Z" fill="#00CCB2"/>
<path fill-rule="evenodd" clip-rule="evenodd" d="M21.6444 88.153L20.1288 109.649C18.4814 115.949 17.0679 120.511 17.0679 120.511C15.5086 118.567 13.7511 117.061 12.0305 115.896C14.0293 109.471 18.8109 94.3635 21.6444 88.153Z" fill="#00A48F"/>
<path fill-rule="evenodd" clip-rule="evenodd" d="M25.1441 77.7125C25.1441 77.7125 19.3378 81.4526 14.8056 91.0687C14.804 91.0719 14.8024 91.0756 14.8008 91.0788C12.3438 95.3915 9.43342 101.057 6.84612 106.284C5.21364 109.196 3.96191 111.338 3.58062 111.986C3.88928 111.485 4.764 110.059 5.92868 108.147C2.67387 114.788 0.127685 120.32 0.0187456 120.767C-0.141459 121.399 0.750345 124.922 1.73293 127.248C1.86644 127.339 1.94654 127.387 1.94654 127.387C1.94654 127.387 0.841128 121.785 0.979971 120.681C1.11882 119.571 7.1158 107.325 7.52699 106.634C7.68826 106.363 9.1301 103.468 10.8235 100.049C13.5063 95.5679 16.0734 91.1882 16.8413 89.5852C18.1517 86.8391 21.3003 82.5281 24.2069 79.56C24.2144 79.5531 24.2144 79.5456 24.2144 79.5456C24.5583 79.1971 24.8953 78.8631 25.2248 78.5585C25.2029 78.269 25.1735 77.9876 25.1441 77.7125Z" fill="#00DABE"/>
<path fill-rule="evenodd" clip-rule="evenodd" d="M23.9425 134.309C23.9425 134.309 21.6676 134.48 19.4621 134.657C17.3581 134.389 14.6453 134.062 13.7962 134.03C12.819 133.987 10.1009 133.682 8.05024 133.44C8.03956 133.435 8.03422 133.435 8.02888 133.435C6.76861 133.162 5.90885 132.958 5.90885 132.958C5.90885 132.958 4.48837 131.242 3.30286 129.773C3.70337 129.891 5.07044 130.277 6.288 130.572C7.73518 130.915 9.25178 131.194 9.25178 131.194C9.25178 131.194 7.11572 129.532 6.69919 128.771C6.288 128.015 5.94089 126.144 5.94089 126.144L11.1101 127.044C11.1101 127.044 8.76582 123.79 7.9381 123.098C7.11572 122.407 4.91024 121.302 4.91024 121.302L3.66599 120.89C3.66599 120.89 5.59912 120.68 6.35742 120.954C7.11572 121.233 8.28521 121.581 8.28521 121.581L9.87123 116.804C9.87123 116.804 11.249 122.407 13.0379 124.348C14.6613 126.095 19.0883 128.974 19.9267 129.511L19.9321 129.516L23.9425 134.309Z" fill="#00A48F"/>
<path fill-rule="evenodd" clip-rule="evenodd" d="M66.1484 201.035L34.2165 203.09L31.3905 203.268L9.65076 204.67L10.8368 183.709L10.8811 182.825L10.9762 181.178L25.2979 180.851L63.8345 179.969L64.8817 189.526L66.1484 201.035Z" fill="#00CCB2"/>
<path fill-rule="evenodd" clip-rule="evenodd" d="M64.8816 189.526C57.2442 189.362 34.2164 188.012 34.2164 188.012V203.09L31.3904 203.268L32.2026 190.312C31.1779 189.837 16.2991 185.348 10.8367 183.708C9.59245 183.33 8.83789 183.107 8.83789 183.107L10.881 182.825L25.2978 180.851L63.8344 179.969L64.8816 189.526Z" fill="#00A48F"/>
<path fill-rule="evenodd" clip-rule="evenodd" d="M73.6166 75.2716C73.6166 75.2716 72.5037 84.2942 71.1345 95.7658C69.5378 109.196 67.5908 125.988 66.6675 135.589C66.2723 139.752 66.0235 145.71 65.8697 152.403C65.6502 162.154 65.6427 173.462 65.7084 183.026C58.936 183.293 43.032 183.968 35.622 184.562C27.8094 185.192 13.7216 183.679 8.83801 183.108C10.3172 168.037 12.3454 149.813 13.2458 137.318C13.3045 136.457 13.3777 135.575 13.4583 134.677C13.5096 134.157 13.5534 133.623 13.6046 133.089C14.0516 128.592 14.7031 123.702 15.4865 118.746C18.0492 102.377 21.9662 85.3257 24.2069 79.5602C24.2144 79.5527 24.2144 79.5457 24.2144 79.5457C24.5733 78.6332 24.8878 78.0022 25.1441 77.7126C26.9747 75.6577 32.591 73.1046 35.622 71.8286C35.6295 71.8211 35.637 71.8211 35.637 71.8211C36.8305 71.3166 37.6214 71.0126 37.6214 71.0126L62.1353 69.0975L73.6166 75.2716Z" fill="#00CCB2"/>
<path fill-rule="evenodd" clip-rule="evenodd" d="M25.2247 78.5584C25.9131 77.9204 26.5646 77.3859 27.1653 76.9849C30.4308 74.8114 35.3219 72.0064 35.622 71.8284C32.5909 73.1044 26.9747 75.6574 25.1441 77.7124C24.8883 78.0019 24.5732 78.633 24.2144 79.5455C24.5583 79.1964 24.8952 78.8624 25.2247 78.5584Z" fill="#00DABE"/>
<path fill-rule="evenodd" clip-rule="evenodd" d="M54.4838 105.382L42.014 125.825L21.2777 131.127L23.9424 134.309C23.9424 134.309 19.8092 134.62 17.2779 134.829C16.4796 134.893 15.0543 134.73 13.4763 134.478C13.4704 134.544 13.4645 134.612 13.4581 134.677C18.2173 136.405 28.4613 140.019 31.8512 140.331C31.8512 140.331 40.169 142.913 45.8365 145.71C50.1492 147.847 60.9566 151.008 65.8695 152.403C66.0233 145.71 66.2722 139.752 66.6673 135.589C67.5906 125.988 69.5377 109.196 71.1344 95.7653L54.4838 105.382Z" fill="#00A48F"/>
<path fill-rule="evenodd" clip-rule="evenodd" d="M50.5357 96.7806L42.6157 95.9437L43.2971 93.8254L51.2171 94.6618L50.5357 96.7806Z" fill="white"/>
<path fill-rule="evenodd" clip-rule="evenodd" d="M16.5197 112.51C16.3168 113.668 16.1192 114.837 15.927 116C15.7721 116.917 15.6279 117.834 15.4837 118.745C15.393 119.329 15.3022 119.914 15.2167 120.493C15.0405 121.629 14.8803 122.761 14.7201 123.881L12.0287 127.114C12.0287 127.114 10.4053 125.645 9.7324 124.45C9.52414 124.079 9.30519 123.559 9.11294 123.018C8.68039 121.834 8.33862 120.557 8.33862 120.557C8.33862 120.557 9.31587 115.008 9.88726 114.177C10.4533 113.347 14.0739 112.671 14.5919 112.569C14.6987 112.547 14.8643 112.531 15.0565 112.526C15.5051 112.499 16.1139 112.504 16.5197 112.51Z" fill="#58BAD3"/>
<path fill-rule="evenodd" clip-rule="evenodd" d="M15.9272 116C15.7723 116.917 15.6282 117.833 15.484 118.745C15.3932 119.329 15.3024 119.914 15.217 120.493L13.4547 120.975C13.4547 120.712 14.3305 118.9 14.3305 118.9C14.3305 118.9 14.747 117.083 15.1582 116.719C15.3878 116.515 15.6655 116.236 15.9272 116Z" fill="#0099B8"/>
<path fill-rule="evenodd" clip-rule="evenodd" d="M15.0569 112.526C13.5937 113.041 11.0998 113.963 10.5605 114.435C9.78617 115.11 9.16137 118.118 9.11331 118.745C9.06525 119.335 9.10797 122.654 9.11331 123.018C8.68076 121.833 8.33899 120.557 8.33899 120.557C8.33899 120.557 9.31624 115.008 9.88763 114.177C10.4537 113.346 14.0743 112.671 14.5923 112.569C14.6991 112.547 14.8646 112.531 15.0569 112.526Z" fill="#85E4E0"/>
<path fill-rule="evenodd" clip-rule="evenodd" d="M80.9119 90.9253C79.5181 97.9058 71.5026 112.097 66.8881 119.865L66.8828 119.871C64.9555 123.125 63.6205 125.254 63.6205 125.254C63.6205 125.254 56.9608 133.998 54.4301 136.175C51.9042 138.357 40.4336 141.467 38.7781 141.777C37.1227 142.088 29.7853 139.29 26.5813 137.628C23.3772 135.966 13.9732 131.194 12.8357 129.741C11.6983 128.288 11.7196 126.471 11.7196 126.471C11.7196 126.471 11.7244 125.726 11.8158 124.766C11.9386 123.501 12.2163 121.871 12.8517 121.147C13.9732 119.882 15.5912 119.651 15.5912 119.651C15.5912 119.651 18.4162 119.528 19.6551 120.016C20.894 120.509 30.0417 122.997 31.9267 123.463C32.2151 123.533 32.6049 123.662 33.0588 123.812C35.3759 124.611 39.349 126.277 39.7768 126.46C39.8035 126.466 39.8141 126.471 39.8141 126.471C43.0663 124.879 43.3279 123.238 43.2745 122.563C43.4134 122.38 43.5522 122.198 43.6911 122.01C44.2678 121.715 45.165 121.152 45.2931 120.509C45.3519 120.22 45.2878 119.994 45.165 119.828C45.4795 119.308 45.7524 118.788 45.966 118.284C45.966 118.284 45.9713 118.284 45.9713 118.279C45.998 118.257 46.0242 118.231 46.0455 118.209C46.4247 117.833 47.6583 117.067 46.8952 116.15C46.8145 116.043 46.6917 115.968 46.5374 115.92C46.5374 115.92 46.516 115.872 46.4893 115.77C46.3932 115.411 46.2383 114.386 46.8952 112.757C46.8952 112.757 50.1473 103.423 54.1679 95.1018L54.1738 95.0911C55.9681 91.381 57.9167 87.864 59.797 85.4729C61.933 82.7493 64.2987 80.6798 66.4721 79.1411C67.3853 78.4924 68.2659 77.9402 69.0781 77.4684H69.0883C71.839 75.8809 73.825 75.2703 73.825 75.2703C73.825 75.2703 74.5998 75.7635 75.6465 76.7066C77.067 77.9831 78.9942 80.0955 80.1589 82.9423C81.0774 85.1673 81.5308 87.8479 80.9119 90.9253Z" fill="#00CCB2"/>
<path fill-rule="evenodd" clip-rule="evenodd" d="M39.5893 126.465C39.1461 126.353 30.1052 123.994 29.1653 123.86C28.1988 123.726 22.6877 121.785 20.8934 121.179C19.1045 120.573 17.0699 120.509 17.0699 120.509L19.1686 122.959C19.0564 122.895 17.2942 121.844 16.8349 121.522C16.365 121.19 14.3464 120.954 13.46 121.522C12.5682 122.091 11.6069 124.766 11.6069 124.766C11.7298 123.501 12.0074 121.871 12.6429 121.147C13.7644 119.882 15.3824 119.651 15.3824 119.651C15.3824 119.651 18.2074 119.528 19.4463 120.016C20.6852 120.509 29.8328 122.997 31.7179 123.462C33.5496 123.919 39.2368 126.315 39.5893 126.465Z" fill="#00DABE"/>
<path fill-rule="evenodd" clip-rule="evenodd" d="M66.4721 79.1407C66.4721 79.1407 55.968 92.2492 53.2125 99.8574C50.457 107.465 47.1407 116.708 47.1407 116.708C47.1407 116.708 46.8631 116.344 46.4892 115.769C46.3931 115.41 46.2383 114.386 46.8951 112.756C46.8951 112.756 50.1472 103.422 54.1678 95.102L54.1737 95.0907C55.968 91.3807 57.9166 87.8642 59.7969 85.473C61.9329 82.7489 64.2986 80.6794 66.4721 79.1407Z" fill="#00DABE"/>
<path fill-rule="evenodd" clip-rule="evenodd" d="M80.1588 82.9423L76.2285 99.1115L66.888 119.865L66.8832 119.871C66.6269 120.182 58.4346 130.122 54.7291 134.03C50.9643 138.003 43.0128 139.349 39.7766 139.526C36.5405 139.702 31.9266 137.907 31.9266 137.907C31.9266 137.907 41.5015 136.523 45.6348 135.553C49.7681 134.582 57.3457 126.47 57.3457 126.47L72.1272 95.8845C72.1272 95.8845 76.2071 81.9612 75.6464 76.7065C77.0669 77.9831 78.9941 80.0949 80.1588 82.9423Z" fill="#00A48F"/>
<path fill-rule="evenodd" clip-rule="evenodd" d="M39.6055 126.47C39.6055 126.47 43.288 125.7 44.9178 123.466C46.5477 121.23 46.6892 119.004 46.6892 119.004C46.6892 119.004 47.5329 117.492 46.93 116.705C46.3271 115.918 41.3042 119.004 41.3042 119.004L39.6055 126.47Z" fill="#00A48F"/>
<path fill-rule="evenodd" clip-rule="evenodd" d="M45.8373 118.209C45.816 118.23 45.7893 118.257 45.7626 118.279C45.7626 118.285 45.7572 118.285 45.7572 118.285C45.3033 118.687 44.1552 119.34 44.1552 119.34C44.1552 119.34 44.6945 119.442 44.9562 119.829C45.079 119.994 45.1431 120.219 45.0844 120.509C44.9562 121.152 44.0591 121.715 43.4823 122.01C43.2046 122.155 43.0017 122.236 43.0017 122.236C43.0017 122.236 43.0498 122.353 43.0658 122.562C43.1192 123.238 42.8575 124.878 39.6054 126.471C39.6054 126.471 39.5947 126.465 39.568 126.461C39.1782 126.294 35.8513 124.895 33.5069 124.042C33.2773 123.962 33.0584 123.881 32.8501 123.811C32.8715 123.785 32.8982 123.763 32.9249 123.737L33.1278 123.533C33.1972 123.463 33.2666 123.388 33.3467 123.313L33.5336 123.125C33.9235 122.739 34.372 122.3 34.858 121.834C35.0075 121.688 35.157 121.544 35.3119 121.399C35.5255 121.201 35.7391 120.997 35.9527 120.798C36.0542 120.702 36.1556 120.611 36.2571 120.514C36.3853 120.402 36.5081 120.284 36.6363 120.171C36.8445 119.984 37.0528 119.796 37.2557 119.614C37.3892 119.496 37.5227 119.383 37.6562 119.266C37.8271 119.12 37.9873 118.981 38.1475 118.852C38.1635 118.842 38.1796 118.825 38.1956 118.815C38.297 118.729 38.3932 118.649 38.4946 118.574C39.0714 118.108 39.5894 117.742 39.9792 117.545C40.6894 117.18 41.6186 116.794 42.5638 116.483C44.0484 115.979 45.5757 115.668 46.3286 115.92C46.4835 115.968 46.6063 116.043 46.6864 116.15C47.4501 117.067 46.2165 117.834 45.8373 118.209Z" fill="#58BAD3"/>
<path fill-rule="evenodd" clip-rule="evenodd" d="M42.5638 116.483C41.5759 116.965 40.3957 117.587 39.6054 118.166C38.3558 119.083 34.9808 122.525 33.5069 124.042C33.2773 123.962 33.0584 123.881 32.8501 123.811C32.8715 123.785 32.8982 123.763 32.9249 123.736L33.1278 123.533C33.1972 123.463 33.2666 123.388 33.3467 123.313L33.5336 123.125C33.9235 122.739 34.372 122.3 34.858 121.833C35.0075 121.688 35.157 121.544 35.3119 121.399C35.5255 121.201 35.7391 120.997 35.9527 120.798C36.0542 120.702 36.1556 120.611 36.2571 120.514C36.3853 120.402 36.5081 120.284 36.6363 120.171C36.8445 119.983 37.0528 119.796 37.2557 119.614C37.3892 119.496 37.5227 119.383 37.6562 119.265C37.8218 119.126 37.9873 118.986 38.1475 118.852C38.1635 118.842 38.1796 118.825 38.1956 118.815C38.297 118.729 38.3932 118.649 38.4946 118.573C39.0714 118.107 39.5894 117.742 39.9792 117.544C40.6894 117.18 41.6186 116.794 42.5638 116.483Z" fill="#85E4E0"/>
<path fill-rule="evenodd" clip-rule="evenodd" d="M58.4014 68.2371C49.3365 74.0772 40.1691 73.3126 40.1691 73.3126C40.4623 71.9771 40.638 70.7526 40.7256 69.6471C41.0919 65.0171 39.979 62.3975 39.979 62.3975L55.7581 59.526C55.7143 60.832 55.8163 61.982 55.9994 62.9841C56.6659 66.5901 58.4014 68.2371 58.4014 68.2371Z" fill="#B57E65"/>
<path fill-rule="evenodd" clip-rule="evenodd" d="M55.9994 62.9842C53.6348 66.7757 48.1355 73.5353 40.7256 69.6472C41.0919 65.0172 39.979 62.3976 39.979 62.3976L55.7581 59.5261C55.7143 60.8321 55.8163 61.9821 55.9994 62.9842Z" fill="#6F4C3C"/>
<path fill-rule="evenodd" clip-rule="evenodd" d="M62.1355 69.0992C62.1355 69.0992 40.8763 86.62 35.6323 95.0904C35.6323 95.0904 35.7071 77.3824 37.6082 71.04C37.6135 71.0293 37.6189 71.0239 37.6189 71.0132L40.3263 70.2465L40.4224 69.5603L40.6948 67.6355C40.6948 67.6355 40.6948 67.6302 40.7001 67.6248L40.7802 67.0404V67.0244L40.7856 67.0029C40.7856 67.0029 43.3061 69.1045 47.6103 68.5202C48.956 68.3379 50.307 67.8554 51.5353 67.2817C51.6207 67.2442 51.7062 67.2066 51.7863 67.1637C51.9465 67.0887 52.1013 67.0083 52.2562 66.9279C52.3737 66.8689 52.4912 66.8094 52.6033 66.7456C52.6941 66.6973 52.7795 66.6491 52.8703 66.6008C53.0038 66.5258 53.132 66.4507 53.2601 66.3756C53.3669 66.3167 53.4737 66.2518 53.5752 66.1933C53.6179 66.1665 53.6607 66.1451 53.7034 66.1178C55.2734 65.1693 56.3147 64.3115 56.3147 64.3115L58.4027 68.236L62.1355 69.0992Z" fill="white"/>
<path fill-rule="evenodd" clip-rule="evenodd" d="M53.7033 66.118C50.8623 69.3992 45.9014 72.2568 40.4224 69.5605L40.6947 67.6353C40.6947 67.6353 40.6947 67.6299 40.7001 67.6251C40.7535 67.4369 40.7855 67.2445 40.7802 67.0407V67.0241L40.7855 67.0027C40.7855 67.0027 43.306 69.1043 47.6102 68.5199C48.9559 68.3382 50.307 67.8551 51.5352 67.282C51.6206 67.2445 51.7007 67.2064 51.7862 67.1635C51.9464 67.089 52.1013 67.008 52.2561 66.9281C52.3736 66.8686 52.4911 66.8097 52.6032 66.7459C52.694 66.6971 52.7848 66.6488 52.8702 66.6006C53.0037 66.526 53.1319 66.4504 53.2601 66.3754C53.3669 66.3164 53.4737 66.258 53.5751 66.1936C53.6179 66.1668 53.6606 66.1454 53.7033 66.118Z" fill="#D0D0D0"/>
<path fill-rule="evenodd" clip-rule="evenodd" d="M62.4869 40.8979C62.3032 37.643 61.4798 34.3018 59.4868 31.6817C57.3112 28.8215 54.0473 27.5519 50.6078 27.0646C46.4718 26.4791 41.6657 26.9429 38.1941 29.5002C36.5301 30.7258 34.6044 32.146 33.7073 34.0804C32.5826 36.508 33.0552 39.6723 33.2336 42.2425C33.2341 42.2527 33.2389 42.2596 33.24 42.2698C33.2336 42.858 33.2368 43.4456 33.2331 44.0257C33.2176 46.4329 33.0029 48.8326 33.1973 51.2388C33.5252 55.2952 35.1742 59.0245 37.6216 62.2236C39.6578 64.8855 42.6114 67.5152 46.1386 67.4638C49.8746 67.4085 53.485 64.4786 55.7348 61.6853C58.242 58.5741 59.9439 54.766 61.1716 50.9686C62.2119 47.7507 62.6776 44.2798 62.4869 40.8979Z" fill="#B57E65"/>
<path fill-rule="evenodd" clip-rule="evenodd" d="M47.9933 50.5624C47.674 50.3501 47.3071 50.3565 46.9606 50.4605C46.9456 49.8638 46.9387 49.2725 46.8484 48.6806C46.8351 48.5916 46.6855 48.5921 46.6717 48.6806C46.5654 49.3673 46.5456 50.0504 46.5659 50.7468C46.5707 50.9114 46.7304 50.9854 46.8687 50.9221C48.3234 50.2563 48.5551 52.5171 47.8235 53.3224C47.572 53.599 47.2559 53.6414 46.9018 53.6666C46.6674 53.6832 46.6257 53.9958 46.8473 54.0767C47.7253 54.3963 48.4318 53.5025 48.5962 52.7262C48.749 52.0051 48.6598 51.0058 47.9933 50.5624Z" fill="#3A180F"/>
<path fill-rule="evenodd" clip-rule="evenodd" d="M50.0541 58.1384C49.9659 58.2719 49.8784 58.4054 49.7977 58.5469C49.3807 60.0529 47.5501 60.8614 46.0634 60.7949C44.1527 60.7134 42.5928 59.5039 42.1902 57.5894C42.1608 57.4409 42.2852 57.3449 42.3952 57.3669C43.0905 57.7679 44.5841 58.4799 46.5616 58.4944C48.3116 58.5094 49.4533 58.2274 50.0615 58.0124H50.0685C50.0904 58.0494 50.0904 58.0939 50.0541 58.1384Z" fill="white"/>
<path fill-rule="evenodd" clip-rule="evenodd" d="M53.3913 44.3058C53.3513 44.1664 53.2146 44.0485 53.0662 44.0544C52.9311 44.0608 52.7613 44.1552 52.7405 44.3058C52.7181 44.4703 52.677 44.6285 52.67 44.7946C52.6642 44.949 52.6492 45.1028 52.6359 45.2566C52.6097 45.5595 52.5841 45.8634 52.5884 46.1678C52.5916 46.371 52.7624 46.5655 52.9717 46.5559C53.1831 46.5462 53.3497 46.3854 53.355 46.1678C53.3619 45.8618 53.4052 45.5605 53.4367 45.2566C53.4516 45.1087 53.4639 44.9597 53.4703 44.8102C53.4778 44.637 53.4388 44.4714 53.3913 44.3058Z" fill="#3A180F"/>
<path fill-rule="evenodd" clip-rule="evenodd" d="M55.5229 40.4173C55.2586 40.2061 54.9003 40.0908 54.5815 39.9905C54.2007 39.871 53.8125 39.8002 53.4146 39.7761C52.7263 39.7343 51.9279 39.8045 51.3961 40.2967C51.2823 40.4028 51.4318 40.6039 51.5627 40.5159C52.1063 40.1503 52.8096 40.1385 53.4323 40.242C53.7655 40.2967 54.1003 40.3771 54.4223 40.4795C54.7219 40.5749 54.99 40.7277 55.2816 40.8376C55.5069 40.9223 55.7162 40.5717 55.5229 40.4173Z" fill="#3A180F"/>
<path fill-rule="evenodd" clip-rule="evenodd" d="M41.9725 43.2848C42.0371 43.1556 42.1925 43.064 42.3377 43.0977C42.4696 43.1288 42.619 43.2526 42.6126 43.4049C42.6057 43.5705 42.6174 43.7334 42.594 43.8991C42.5726 44.0518 42.5593 44.2056 42.5443 44.3595C42.5165 44.6612 42.4866 44.9657 42.4279 45.2631C42.3884 45.4625 42.185 45.6223 41.9816 45.5746C41.775 45.5263 41.6405 45.3371 41.6741 45.1222C41.7221 44.8204 41.7339 44.516 41.7574 44.2115C41.7691 44.0631 41.7841 43.9146 41.8049 43.7661C41.8278 43.5946 41.8956 43.4386 41.9725 43.2848Z" fill="#3A180F"/>
<path fill-rule="evenodd" clip-rule="evenodd" d="M40.5754 39.0684C40.8733 38.9092 41.2466 38.8615 41.5777 38.8223C41.9734 38.7746 42.368 38.7762 42.7638 38.8261C43.4478 38.9119 44.2205 39.1285 44.6547 39.7107C44.7476 39.8356 44.5645 40.0061 44.4518 39.8951C43.9834 39.4357 43.2935 39.2947 42.6628 39.2807C42.3253 39.2743 41.9814 39.2909 41.6461 39.3322C41.3347 39.3703 41.0437 39.4721 40.7372 39.5263C40.5006 39.5681 40.3575 39.1848 40.5754 39.0684Z" fill="#3A180F"/>
<path fill-rule="evenodd" clip-rule="evenodd" d="M33.8206 50.4345C33.7192 49.9461 33.5883 49.5654 33.5675 49.0513C33.552 48.6642 33.3731 48.3436 33.3347 47.9742C33.2914 47.5598 33.6204 47.2729 33.6898 46.8714C33.7304 46.6392 33.7005 46.3851 33.6524 46.1556C33.5819 45.8195 33.4388 45.4688 33.1494 45.3311C33.4191 44.9799 33.5696 44.5874 33.5312 44.1317C33.4917 43.6642 33.3032 43.2187 33.2946 42.7474C33.285 42.2424 33.5157 41.7663 33.5713 41.2672C33.6449 40.6093 33.473 39.9628 33.4495 39.3081C33.4458 39.2197 33.3614 39.1972 33.3026 39.2293C33.23 39.1398 33.0965 39.1001 32.9892 39.2063C32.5524 39.6352 32.2159 39.8936 32.0344 40.5016C31.8181 41.2232 31.6723 41.9829 31.5436 42.7249C31.2793 44.2497 31.173 45.7878 31.3583 47.3281C31.4875 48.4031 31.7439 49.4737 32.044 50.5138C32.2319 51.1658 32.5128 52.2697 33.2904 52.4429C33.395 52.4664 33.4853 52.4257 33.5451 52.3388C33.913 51.8032 33.9499 51.0564 33.8206 50.4345Z" fill="#3A180F"/>
<path fill-rule="evenodd" clip-rule="evenodd" d="M63.6815 44.4325C63.5357 44.0384 63.147 43.424 62.6423 43.5194C61.9326 43.6529 62.15 44.744 61.9892 45.2217C61.8509 45.6318 61.5652 45.9149 61.5353 46.3668C61.4963 46.9582 61.6469 47.5136 61.5594 48.1114C61.4782 48.6674 61.3447 49.1756 61.0932 49.6807C60.91 50.0495 60.7145 50.4082 60.6718 50.8264C60.6083 51.4467 60.9976 52.0263 60.7204 52.6176C60.5955 52.8846 60.4689 53.1521 60.376 53.4325C60.2377 53.848 60.1843 54.3536 60.5506 54.5338C60.588 54.6303 60.682 54.7053 60.7946 54.6603C61.4008 54.4174 61.6662 53.6641 61.9358 53.121C62.3508 52.2895 62.6349 51.5228 62.7929 50.5969C62.9782 49.5113 63.2415 48.4674 63.508 47.4C63.7355 46.4907 64.0206 45.3493 63.6815 44.4325Z" fill="#3A180F"/>
<path fill-rule="evenodd" clip-rule="evenodd" d="M59.0038 55.5352C59.3301 53.9113 59.4427 52.4208 59.3995 51.5818C59.823 50.9647 61.8277 48.0004 62.8631 45.7315L62.2319 45.4409C61.3711 47.3281 59.7685 49.7863 59.0796 50.8135C58.1638 50.4752 53.9595 49.2614 48.5942 48.4915C43.472 47.757 36.4107 48.1602 34.8541 48.2626C34.311 47.326 33.0219 44.9445 32.3939 42.4236L31.7205 42.5925C32.4659 45.5873 34.0605 48.3071 34.4381 48.9258C34.3206 49.7772 34.1481 51.4049 34.1903 53.3602C33.5569 51.4853 32.9161 49.5247 32.5989 48.365L31.9293 48.55C32.4035 50.2811 34.2672 56.2933 34.2795 56.378C34.8994 60.6328 38.1553 64.0571 38.1553 64.0571C38.1553 64.0571 41.3594 67.4813 45.7004 67.8969C50.0414 68.3113 55.9994 62.9843 57.6896 59.5948C57.8535 59.2673 57.9998 58.9193 58.1376 58.5649L58.1478 58.5714C58.2519 58.3837 60.6977 53.9692 61.4197 52.26L61.6178 50.5669C61.2798 51.3673 59.6959 54.2346 59.0038 55.5352Z" fill="white"/>
<path fill-rule="evenodd" clip-rule="evenodd" d="M66.37 44.657C64.5282 52.3398 59.2463 56.5533 59.2463 56.5533C61.361 52.9081 62.6533 45.5792 62.1353 43.0915C61.9756 42.3243 61.8421 41.585 61.6227 40.8559V40.85C61.1153 39.1987 60.1381 37.5903 57.2763 35.7996C56.785 35.4886 56.2937 35.2157 55.7966 34.9798C52.1332 33.2052 48.2675 33.2696 42.5316 34.2775C36.0172 35.4195 34.2282 37.564 33.0903 41.8155C33.0849 41.8364 33.0801 41.8579 33.0742 41.8793C31.9955 46.051 33.5714 53.9209 33.6456 54.2913C31.0135 50.8167 29.9236 47.0637 29.577 42.5924C29.4221 40.6301 29.4114 38.5237 29.4755 36.2451C29.6784 28.7768 34.2282 22.8632 41.2553 19.7483C46.7669 17.303 54.1251 17.2875 60.0372 21.153C61.6606 22.2145 63.1772 23.5709 64.5122 25.249C65.3805 26.3331 66.0341 27.5008 66.5249 28.6942L66.5361 28.7071L66.6584 29.0073L66.7011 29.1145C69.462 36.3791 66.37 44.657 66.37 44.657Z" fill="#00CCB2"/>
<path fill-rule="evenodd" clip-rule="evenodd" d="M66.3698 44.657C64.528 52.3398 59.2461 56.5533 59.2461 56.5533C61.3608 52.9081 62.6531 45.5792 62.1351 43.0915C61.9754 42.3243 61.8419 41.585 61.6225 40.8559V40.85C61.6225 40.85 63.892 41.5201 64.2338 39.7675C64.5809 38.009 63.2838 35.108 62.8619 32.8246C62.4448 30.5407 63.0648 30.2614 63.5449 29.0181C64.0309 27.7742 64.2664 27.1523 63.8392 26.2516C63.4328 25.4099 62.9313 24.4449 62.8667 24.3269L66.5359 28.7071L66.6582 29.0073L66.7009 29.1146C69.4618 36.3792 66.3698 44.657 66.3698 44.657Z" fill="#00A48F"/>
<path fill-rule="evenodd" clip-rule="evenodd" d="M35.8276 59.5259C35.8276 59.5259 38.3226 61.6361 39.9785 62.103C41.635 62.57 44.7852 59.6159 47.2913 59.0814C49.7975 58.5469 54.6105 58.9131 55.5985 56.5562C56.5869 54.1988 58.401 51.3788 58.401 51.3788C58.401 51.3788 58.5809 54.2991 57.8963 57.3636C57.2117 60.4282 55.7426 61.4913 53.0293 64.4518C50.3165 67.4124 46.8321 67.7957 43.9772 67.066C41.1229 66.3369 36.9699 63.3308 35.8276 59.5259Z" fill="#F0F0F0"/>
<path fill-rule="evenodd" clip-rule="evenodd" d="M60.0368 21.153C59.3426 20.9975 58.4454 20.842 56.5871 20.5096C53.2014 19.9038 53.6927 19.2653 51.3537 18.987C49.0201 18.7077 47.0122 18.987 43.493 19.8877C39.9792 20.7879 40.8764 21.2709 39.9792 22.7935C39.0821 24.3156 37.2931 25.6297 34.8847 26.8408C32.471 28.0471 32.7487 28.6744 31.2641 31.302C29.7849 33.9285 30.4043 34.9691 30.2655 37.6659C30.1961 39.0432 29.8757 41.0054 29.5766 42.5924C29.4217 40.6301 29.4111 38.5231 29.4751 36.2446C29.6781 28.7768 34.2279 22.8627 41.2555 19.7483C46.7665 17.303 54.1253 17.2875 60.0368 21.153Z" fill="#00DABE"/>
<path fill-rule="evenodd" clip-rule="evenodd" d="M55.7967 34.98C52.1333 33.2049 48.2671 33.2698 42.5317 34.2772C36.0168 35.4191 34.2278 37.5637 33.0904 41.8157C33.085 41.8366 33.0797 41.8581 33.0743 41.8795C33.2452 40.7756 33.4695 39.601 33.7419 38.7866C34.3987 36.8351 36.1236 35.0385 38.0514 34.208C39.9791 33.377 41.0151 32.7551 43.6318 32.2667C46.2538 31.7842 47.5622 32.0635 49.6288 32.4758C51.6954 32.894 53.1266 32.4758 54.4509 33.7196C54.8461 34.0901 55.3214 34.5351 55.7967 34.98Z" fill="#00DABE"/>
<path fill-rule="evenodd" clip-rule="evenodd" d="M232.945 122.915C232.893 123.317 232.818 123.817 232.729 124.408C232.138 128.067 230.807 135.053 229.491 141.38C228.631 145.517 227.778 149.374 227.15 151.844C226.784 153.306 226.702 156.284 226.807 160.072C227.18 174.037 230.044 198.965 230.044 198.965C230.044 198.965 216.541 201.7 209.019 201.511C201.49 201.314 171.193 196.813 171.193 196.813C171.193 196.813 172.771 189.782 174.491 181.228C176.809 169.711 179.388 155.435 178.73 151.844C178.423 150.17 177.99 145.093 177.571 138.516C177.354 135.205 177.137 131.515 176.951 127.688C176.195 112.489 175.777 95.0996 176.778 90.5993C176.794 90.5312 176.809 90.4701 176.823 90.4095C176.921 90.016 177.041 89.7351 177.168 89.5989L177.175 89.5914C177.983 88.7577 180.098 87.7578 182.626 86.788C182.633 86.788 182.633 86.7804 182.641 86.7804C182.992 86.6443 183.359 86.5076 183.725 86.3714L183.732 86.3633C186.125 85.4851 188.742 84.6434 190.865 83.992C193.363 83.2345 195.179 82.7343 195.179 82.7343L210.267 84.1132L213.333 85.7731L224.063 91.5767C224.063 91.5767 224.84 95.721 225.992 99.245C227.15 102.768 233.521 118.407 232.945 122.915Z" fill="#EDA1AB"/>
<path fill-rule="evenodd" clip-rule="evenodd" d="M232.728 124.408C232.138 128.067 230.807 135.053 229.491 141.38C228.631 145.517 227.778 149.373 227.151 151.844C226.784 153.306 226.702 156.284 226.807 160.072C220.369 162.118 199.269 168.756 193.505 169.877C188.652 170.816 179.418 177.469 174.49 181.227C176.809 169.71 179.388 155.435 178.73 151.844C178.274 149.321 177.519 139.122 176.951 127.688L185.22 104.616C185.22 104.616 187.987 125.022 187.552 128.749C187.493 129.272 187.448 129.886 187.411 130.53C189.355 131.628 192.899 133.538 194.731 133.947C197.34 134.538 215.674 131.894 215.674 131.894L214.664 136.342L217.984 132.091C217.984 132.091 228.624 128.044 232.728 124.408Z" fill="#DB909A"/>
<path fill-rule="evenodd" clip-rule="evenodd" d="M223.781 106.278L216.523 106.364L216.239 104.703L223.497 104.616L223.781 106.278Z" fill="#EB8991"/>
<path fill-rule="evenodd" clip-rule="evenodd" d="M223.497 106.067L216.24 106.152L215.956 104.49L223.213 104.405L223.497 106.067Z" fill="white"/>
<path fill-rule="evenodd" clip-rule="evenodd" d="M236.052 150.654C236.052 150.654 234.479 151.573 232.728 150.432C230.977 149.29 230.409 145.97 230.409 145.97L237.747 142.922C237.747 142.922 238.109 144.413 238.005 145.295C237.902 146.177 236.888 149.528 236.052 150.654Z" fill="#EB8991"/>
<path fill-rule="evenodd" clip-rule="evenodd" d="M240.794 138.013C240.789 138.119 240.783 138.232 240.767 138.339C240.313 144.248 236.33 150.247 236.052 150.654C236.148 150.429 236.949 148.601 237.077 147.63C237.109 147.373 237.131 146.81 237.109 146.087C237.056 143.894 236.634 140.194 235.075 138.844C234.936 138.725 234.792 138.602 234.631 138.478C232.906 137.133 230.156 135.691 229.067 135.134C229.051 134.988 229.03 134.801 228.998 134.619C228.933 134.26 228.827 133.921 228.645 133.949L227.246 121.012L225.078 100.965L224.063 91.5781C224.063 91.5781 229.499 93.7655 232.981 99.1912C234.904 102.193 237.05 109.007 238.61 116.063V116.068C238.653 116.342 240.004 124.995 240.575 131.831C240.778 134.281 240.885 136.495 240.794 138.013Z" fill="#FFAEB7"/>
<path fill-rule="evenodd" clip-rule="evenodd" d="M234.632 138.479C232.907 137.133 230.157 135.691 229.067 135.134C229.051 134.988 229.03 134.801 228.998 134.619C228.934 134.26 228.827 133.922 228.645 133.949L227.246 121.012V113.189L226.707 101.25C226.707 101.25 231.534 109.318 232.447 111.63C233.355 113.94 236.25 127.22 236.388 129.992C236.501 132.329 235.438 136.812 234.632 138.479Z" fill="#EB8991"/>
<path fill-rule="evenodd" clip-rule="evenodd" d="M217.067 142.372L223.875 109.988L237.429 107.205L230.621 139.59L217.067 142.372Z" fill="#3E5164"/>
<path fill-rule="evenodd" clip-rule="evenodd" d="M237.429 107.205L236.317 106.284L222.764 109.067L215.956 141.452L217.067 142.373L223.875 109.987L237.429 107.205Z" fill="white"/>
<path fill-rule="evenodd" clip-rule="evenodd" d="M237.109 146.087C236.938 146.269 236.762 146.44 236.591 146.591C234.802 148.183 228.944 148.944 228.944 148.944L229.083 135.385C229.083 135.385 229.077 135.284 229.066 135.133C230.252 135.739 233.419 137.401 235.074 138.843C236.633 140.195 237.055 143.894 237.109 146.087Z" fill="#0099B8"/>
<path fill-rule="evenodd" clip-rule="evenodd" d="M234.023 142.35V142.355C233.974 142.559 233.916 142.779 233.841 143.009C233.782 143.197 233.713 143.39 233.638 143.588C233.595 143.706 233.547 143.83 233.494 143.952C233.425 144.141 233.344 144.328 233.254 144.521C233.206 144.634 233.152 144.746 233.099 144.859C233.034 144.998 232.97 145.132 232.906 145.266C232.837 145.406 232.773 145.54 232.698 145.674C232.624 145.813 232.554 145.947 232.479 146.081C232.479 146.087 232.474 146.087 232.474 146.092C232.399 146.231 232.324 146.365 232.244 146.499C232.154 146.66 232.068 146.805 231.977 146.95C231.95 146.987 231.929 147.03 231.902 147.068C231.823 147.197 231.742 147.315 231.668 147.432C231.571 147.571 231.475 147.705 231.389 147.818C231.341 147.877 231.299 147.931 231.251 147.985C231.208 148.033 231.171 148.081 231.128 148.124C229.911 149.459 219.337 150.472 215.578 148.842C215.578 148.842 214.125 147.942 213.842 146.714C213.826 146.655 213.81 146.585 213.81 146.526C213.639 145.342 214.418 144.017 214.418 144.017C214.418 144.017 213.415 143.299 213.687 142.371C213.709 142.296 213.735 142.216 213.784 142.13C214.322 141.085 214.701 140.72 214.701 140.72L214.697 140.699C214.68 140.613 214.643 140.366 214.697 140.055C214.777 139.546 215.092 138.865 216.154 138.57C216.154 138.57 216.127 138.157 216.304 137.637C216.437 137.272 216.661 136.849 217.073 136.479C217.222 136.34 217.398 136.211 217.602 136.099C217.602 136.099 220.982 137.176 222.909 136.977C222.909 136.977 222.268 136.506 221.847 135.654C221.729 135.407 221.622 135.139 221.558 134.833C221.558 134.833 225.515 135.021 227.15 134.833C227.759 134.758 228.404 134.903 229.04 135.139C229.868 135.455 230.669 135.938 231.299 136.372H231.304C231.518 136.522 231.71 136.662 231.881 136.79C232.233 137.037 232.517 137.487 232.773 138.007C232.927 138.329 233.072 138.677 233.2 139.031C233.509 139.852 233.761 140.677 234.023 141.181C234.15 141.427 234.135 141.841 234.023 142.35Z" fill="#58BAD3"/>
<path fill-rule="evenodd" clip-rule="evenodd" d="M229.042 135.137C227.891 134.924 226.537 135.068 226.059 135.122C225.446 135.197 223.816 135.122 223.277 135.122C222.732 135.122 221.558 134.834 221.558 134.834C221.558 134.834 225.513 135.023 227.15 134.834C227.756 134.758 228.407 134.902 229.042 135.137Z" fill="#85E4E0"/>
<path fill-rule="evenodd" clip-rule="evenodd" d="M222.328 143.532C222.328 143.532 221.505 144.267 220.982 144.365C220.451 144.463 214.417 144.017 214.417 144.017C214.417 144.017 213.415 143.297 213.684 142.373C214.2 142.6 215.352 143.055 216.398 143.093C217.797 143.138 219.98 143.13 220.675 143.206C221.363 143.289 222.328 143.532 222.328 143.532Z" fill="#0099B8"/>
<path fill-rule="evenodd" clip-rule="evenodd" d="M220.571 140.918C220.571 140.918 219.292 141.062 218.515 141.115C217.745 141.16 214.702 140.721 214.702 140.721L214.694 140.698C214.679 140.615 214.642 140.365 214.694 140.054C215.375 140.206 217.042 140.562 217.633 140.622C218.395 140.698 220.571 140.918 220.571 140.918Z" fill="#0099B8"/>
<path fill-rule="evenodd" clip-rule="evenodd" d="M217.983 139.031L216.152 138.569C216.152 138.569 216.13 138.16 216.302 137.636L217.983 139.031Z" fill="#0099B8"/>
<path fill-rule="evenodd" clip-rule="evenodd" d="M228.683 136.515C228.683 136.515 225.7 137.22 222.911 136.977C222.911 136.977 222.268 136.508 221.85 135.652C221.88 135.659 221.999 135.667 222.463 135.652C223.188 135.637 224.631 136.44 225.498 136.515C226.366 136.591 228.683 136.515 228.683 136.515Z" fill="#0099B8"/>
<path fill-rule="evenodd" clip-rule="evenodd" d="M226.149 136.925C225.468 137.023 222.231 137.448 220.907 137.289C219.816 137.152 217.969 136.705 217.072 136.478C217.221 136.341 217.4 136.213 217.602 136.099C217.602 136.099 220.982 137.175 222.912 136.978C224.153 137.084 225.7 136.962 226.149 136.925Z" fill="#85E4E0"/>
<path fill-rule="evenodd" clip-rule="evenodd" d="M234.023 141.181C233.761 140.677 233.51 139.852 233.2 139.031C233.072 138.677 232.928 138.329 232.773 138.007C232.517 137.487 232.233 137.037 231.881 136.79C231.711 136.661 231.518 136.522 231.304 136.372H231.299C231.203 136.388 230.941 136.736 230.872 137.026C230.803 137.321 229.962 139.433 229.962 139.433H229.964C229.66 140.207 229.534 141.159 228.982 142.253C227.839 144.543 225.296 145.658 225.27 145.668C224.459 145.963 223.877 146.124 223.877 146.07C223.877 145.926 223.518 142.372 223.518 142.372L222.087 145.046C222.087 145.046 218.611 146.859 217.617 147.046C216.94 147.185 214.969 146.789 213.81 146.527C213.81 146.585 213.826 146.655 213.842 146.714C214.125 147.941 215.578 148.842 215.578 148.842C219.337 150.472 229.911 149.459 231.128 148.124C231.171 148.081 231.208 148.033 231.251 147.984C231.294 147.931 231.337 147.877 231.379 147.824C231.379 147.824 231.385 147.824 231.39 147.819C231.475 147.706 231.571 147.572 231.668 147.432C231.742 147.314 231.823 147.197 231.902 147.068C231.929 147.03 231.95 146.987 231.978 146.95C232.068 146.805 232.154 146.661 232.245 146.499C232.324 146.365 232.399 146.231 232.474 146.092C232.474 146.086 232.479 146.086 232.479 146.082C232.512 146.039 232.533 145.99 232.56 145.948C232.608 145.856 232.655 145.765 232.698 145.674C232.773 145.54 232.837 145.406 232.906 145.266C232.912 145.256 232.917 145.239 232.928 145.229C232.987 145.105 233.046 144.983 233.099 144.859C233.152 144.746 233.206 144.634 233.254 144.521C233.344 144.328 233.425 144.141 233.494 143.953C233.547 143.829 233.595 143.706 233.638 143.588C233.713 143.39 233.782 143.197 233.841 143.009C233.916 142.778 233.974 142.559 234.023 142.355V142.35C234.135 141.84 234.15 141.427 234.023 141.181Z" fill="#0099B8"/>
<path fill-rule="evenodd" clip-rule="evenodd" d="M219.738 61.8305C219.645 60.8365 219.24 59.9573 218.272 59.7707C217.461 59.6147 216.506 59.8833 215.976 60.6065C215.264 61.0499 215.064 63.0915 214.994 63.6566C214.921 64.263 214.884 64.8731 214.817 65.48C214.744 66.1464 214.44 66.9962 214.376 67.7537C214.347 68.0969 214.362 68.4764 214.55 68.7654C214.807 69.1579 215.263 69.2136 215.667 69.1289C216.58 68.938 217.423 68.2127 218.038 67.4835C219.287 66.0033 219.927 63.8475 219.738 61.8305Z" fill="#FFD3D1"/>
<path fill-rule="evenodd" clip-rule="evenodd" d="M210.365 74.9071C210.088 76.1649 210.081 78.6729 210.141 80.9611C210.207 83.4922 210.268 84.1141 210.268 84.1141C210.268 84.1141 209.692 88 204.435 88.4847C199.186 88.9774 195.179 82.7341 195.179 82.7341C195.546 81.575 195.822 80.1049 196.025 78.7566C196.338 76.6951 196.473 74.9071 196.473 74.9071C196.473 74.9071 210.948 72.2624 210.365 74.9071Z" fill="#FFD3D1"/>
<path fill-rule="evenodd" clip-rule="evenodd" d="M210.365 74.9071C210.088 76.1649 210.081 78.6729 210.141 80.9611C208.667 82.6886 206.649 84.3329 204.435 84.0905C201.325 83.7496 197.856 80.6277 196.025 78.7566C196.338 76.6951 196.473 74.9071 196.473 74.9071C196.473 74.9071 210.948 72.2624 210.365 74.9071Z" fill="#FF9BA1"/>
<path fill-rule="evenodd" clip-rule="evenodd" d="M217.821 51.9718C217.848 49.14 217.391 46.2443 215.643 44.0001C213.815 41.6524 210.962 40.3667 208.102 39.8998C201.94 38.8945 195.204 41.0326 191.884 46.6588C190.771 48.5438 189.991 50.7607 189.623 53.0189C189.551 52.9508 188.855 58.6955 188.742 61.4786C188.639 64.0053 188.789 66.5563 189.582 68.9705C190.929 73.0681 193.957 76.0088 197.347 78.453C199.031 79.6663 200.857 81.0442 202.962 81.3331C205.029 81.6162 206.793 80.6019 208.302 79.2664C211.907 76.0769 215.39 71.9712 216.936 67.3085C217.841 64.5779 217.779 61.7788 217.91 58.9432C218.016 56.655 218.385 54.2274 217.821 51.9718Z" fill="#FAE0BD"/>
<path fill-rule="evenodd" clip-rule="evenodd" d="M191.304 61.2328C191.217 60.4243 190.836 59.1714 189.988 58.8953C189.948 58.8819 189.912 58.8851 189.876 58.8931C189.637 58.6792 189.344 58.5291 189.006 58.4637C188.367 58.3398 187.6 58.4449 187.103 58.9022C186.493 59.463 186.283 60.4661 186.172 61.2537C186.048 62.1394 186.044 63.0455 186.149 63.9344C186.362 65.7433 187.339 67.5779 189.064 68.3049C189.706 68.5757 190.313 68.5339 190.53 67.7801C190.65 67.3635 190.705 66.918 190.795 66.4939C190.927 65.8693 191.06 65.2431 191.15 64.6105C191.305 63.5242 191.422 62.3297 191.304 61.2328Z" fill="#FFD3D1"/>
<path fill-rule="evenodd" clip-rule="evenodd" d="M206.127 73.1087C205.895 73.0894 205.745 73.2315 205.563 73.3505C205.385 73.4668 205.196 73.5676 204.999 73.6475C204.59 73.8126 204.151 73.9097 203.711 73.9301C203.272 73.9504 202.838 73.8974 202.417 73.7681C202.212 73.7049 202.018 73.618 201.835 73.5038C201.791 73.477 201.752 73.4433 201.703 73.4245C201.687 73.4181 201.623 73.3945 201.609 73.3912C201.508 73.3425 201.411 73.2599 201.327 73.1886C201.187 73.0712 200.951 73.2208 201.06 73.3966C201.127 73.5022 201.197 73.6127 201.281 73.7049C201.347 73.7773 201.386 73.8652 201.506 73.9558C201.703 74.1043 201.916 74.2212 202.143 74.3171C202.627 74.522 203.157 74.5916 203.679 74.5713C204.207 74.5498 204.734 74.4421 205.224 74.2405C205.605 74.0834 206.321 73.8062 206.326 73.3103C206.327 73.1945 206.233 73.1178 206.127 73.1087Z" fill="#FF6969"/>
<path fill-rule="evenodd" clip-rule="evenodd" d="M205.771 68.1101C205.681 67.6878 205.397 67.4326 205.12 67.1303C205.027 67.029 205.015 66.8505 204.996 66.6785C204.961 66.3628 204.948 66.0519 204.889 65.7394C204.866 65.6204 204.675 65.621 204.652 65.7394C204.599 66.0128 204.558 66.2797 204.54 66.5579C204.527 66.7648 204.521 66.9845 204.588 67.1839C204.696 67.5061 205.01 67.6786 205.16 67.9745C205.222 68.0967 205.255 68.2232 205.257 68.3449C205.26 68.4698 205.244 68.5555 205.188 68.6386C205.178 68.6509 205.166 68.6622 205.155 68.6734C205.146 68.6804 205.147 68.6804 205.143 68.6831C205.139 68.6858 205.139 68.6852 205.13 68.6911C205.121 68.697 205.111 68.7019 205.101 68.7067C205.099 68.7067 205.092 68.7088 205.077 68.7142C205.068 68.7169 205.034 68.7206 205.027 68.7217C204.957 68.7249 204.949 68.7233 204.862 68.6965C204.734 68.6574 204.638 68.6649 204.511 68.7035C204.352 68.7512 204.282 68.9313 204.36 69.0776C204.437 69.2185 204.527 69.307 204.688 69.337C204.796 69.3574 204.905 69.3692 205.014 69.3579C205.206 69.3375 205.39 69.2679 205.529 69.128C205.792 68.8648 205.846 68.4628 205.771 68.1101Z" fill="#FF9BA1"/>
<path fill-rule="evenodd" clip-rule="evenodd" d="M209.551 60.553C209.398 60.3263 208.951 60.3879 208.802 60.5868C208.778 60.6179 208.753 60.6484 208.73 60.679C208.667 60.7669 208.662 60.8323 208.651 60.9277C208.642 60.9957 208.635 61.0638 208.627 61.1313C208.609 61.2852 208.601 61.4369 208.598 61.5912C208.594 61.7397 208.592 61.8876 208.593 62.0361C208.594 62.1101 208.595 62.1846 208.597 62.2591C208.6 62.3641 208.629 62.4654 208.653 62.5689C208.691 62.7302 208.965 62.8524 209.172 62.8358C209.383 62.8192 209.641 62.698 209.666 62.5222C209.713 62.1953 209.697 61.8683 209.709 61.5408C209.714 61.3924 209.719 61.2466 209.714 61.0992C209.711 61.0263 209.712 60.9523 209.705 60.8794C209.693 60.7524 209.625 60.6613 209.551 60.553Z" fill="#00143B"/>
<path fill-rule="evenodd" clip-rule="evenodd" d="M211.808 56.8651C211.655 56.7369 211.509 56.5991 211.347 56.4849C210.905 56.1751 210.309 56.0936 209.785 56.07C208.724 56.0223 207.77 56.6377 207.24 57.5492C207.128 57.7432 207.43 57.9245 207.565 57.7545C208.13 57.0404 209.051 56.6533 209.946 56.7423C210.355 56.7825 210.77 56.857 211.094 57.1229C211.312 57.302 211.716 57.7931 212.032 57.6382C212.193 57.5599 212.25 57.4146 212.206 57.242C212.164 57.0763 211.934 56.9707 211.808 56.8651Z" fill="#FF9043"/>
<path fill-rule="evenodd" clip-rule="evenodd" d="M197.68 60.553C197.833 60.3263 198.28 60.3879 198.43 60.5868C198.453 60.6179 198.479 60.6484 198.501 60.679C198.564 60.7669 198.569 60.8323 198.58 60.9277C198.589 60.9957 198.597 61.0638 198.604 61.1313C198.622 61.2852 198.63 61.4369 198.634 61.5912C198.637 61.7397 198.639 61.8876 198.638 62.0361C198.637 62.1101 198.636 62.1846 198.634 62.2591C198.631 62.3641 198.602 62.4654 198.578 62.5689C198.54 62.7302 198.266 62.8524 198.059 62.8358C197.848 62.8192 197.59 62.698 197.565 62.5222C197.518 62.1953 197.534 61.8683 197.522 61.5408C197.517 61.3924 197.512 61.2466 197.518 61.0992C197.521 61.0263 197.519 60.9523 197.526 60.8794C197.538 60.7524 197.606 60.6613 197.68 60.553Z" fill="#00143B"/>
<path fill-rule="evenodd" clip-rule="evenodd" d="M195.424 56.8651C195.576 56.7369 195.722 56.5991 195.885 56.4849C196.327 56.1751 196.923 56.0936 197.447 56.07C198.508 56.0223 199.461 56.6377 199.992 57.5492C200.104 57.7432 199.801 57.9245 199.667 57.7545C199.101 57.0404 198.181 56.6533 197.285 56.7423C196.877 56.7825 196.462 56.857 196.138 57.1229C195.919 57.302 195.515 57.7931 195.199 57.6382C195.039 57.5599 194.982 57.4146 195.026 57.242C195.068 57.0763 195.298 56.9707 195.424 56.8651Z" fill="#FF9043"/>
<path fill-rule="evenodd" clip-rule="evenodd" d="M213.5 67.3948C213.5 67.8134 212.712 68.1527 211.74 68.1527C210.768 68.1527 209.98 67.8134 209.98 67.3948C209.98 66.9767 210.768 66.6375 211.74 66.6375C212.712 66.6375 213.5 66.9767 213.5 67.3948Z" fill="#FFBCC1"/>
<path fill-rule="evenodd" clip-rule="evenodd" d="M198.161 67.3948C198.161 67.8134 197.372 68.1527 196.4 68.1527C195.428 68.1527 194.64 67.8134 194.64 67.3948C194.64 66.9767 195.428 66.6375 196.4 66.6375C197.372 66.6375 198.161 66.9767 198.161 67.3948Z" fill="#FFBCC1"/>
<path fill-rule="evenodd" clip-rule="evenodd" d="M215.626 69.4432L214.976 69.1971C214.994 69.15 216.762 64.417 217.302 61.1005L217.987 61.2125C217.436 64.5982 215.7 69.247 215.626 69.4432Z" fill="white"/>
<path fill-rule="evenodd" clip-rule="evenodd" d="M215.85 68.0045C215.85 68.0045 215.818 68.2613 215.749 68.6747C215.615 69.5486 215.332 71.1243 214.889 72.3633C213.511 76.239 208 82.1209 205.448 82.6029C202.81 83.1015 200.075 82.1209 196.834 79.7667C196.343 79.4081 195.862 79.0108 195.408 78.5872C192.861 76.2658 190.976 73.3331 190.976 73.3331C190.976 73.3331 191.392 68.2136 192.22 67.522C193.048 66.8304 208 63.0936 215.85 68.0045Z" fill="white"/>
<path fill-rule="evenodd" clip-rule="evenodd" d="M215.749 68.6746C215.615 69.5485 215.333 71.1242 214.889 72.3632C213.512 76.2389 208 82.1208 205.448 82.6028C202.81 83.1014 200.075 82.1208 196.834 79.7666C196.343 79.408 195.862 79.0107 195.408 78.5872L194.078 76.4426C194.078 76.4426 195.451 77.6436 196.402 77.7513C196.402 77.7513 200.22 78.2065 201.181 78.0028C202.143 77.7942 203.205 75.2529 203.205 75.2529C203.205 75.2529 207.797 73.896 209.154 73.896C210.51 73.896 212.165 71.6233 212.139 70.1704C212.112 68.7175 212.139 66.6582 212.139 66.6582C212.139 66.6582 214.328 67.3498 215.749 68.6746Z" fill="#F0F0F0"/>
<path fill-rule="evenodd" clip-rule="evenodd" d="M192.175 68.0056C192.147 67.9402 189.351 61.4476 188.281 59.9035L188.851 59.5057C189.961 61.1066 192.697 67.4593 192.812 67.7289L192.175 68.0056Z" fill="white"/>
<path fill-rule="evenodd" clip-rule="evenodd" d="M190.978 73.3324C190.952 73.2873 188.398 68.7672 187.229 65.3166L187.887 65.0925C189.034 68.4809 191.556 72.9426 191.581 72.9876L190.978 73.3324Z" fill="white"/>
<path fill-rule="evenodd" clip-rule="evenodd" d="M219.989 52.9232C219.572 58.0432 216.592 66.6369 216.592 66.6369C216.988 64.6479 217.046 61.6777 216.395 59.2066C216.08 57.995 215.594 56.9066 214.889 56.1073C214.339 55.4853 213.399 54.9605 212.219 54.5257V54.5203C208.791 53.2609 203.333 52.7891 199.589 53.202C194.559 53.7542 191.942 55.8987 190.495 59.3568C189.31 62.187 189.523 68.1113 189.635 70.1706C189.667 70.6209 189.683 70.8992 189.683 70.8992C189.683 70.8992 186.704 68.8356 184.845 65.377C184.113 64.0152 183.66 61.7801 183.425 59.3675C183.062 55.636 183.227 51.4912 183.703 49.5509C183.708 49.5396 183.713 49.5348 183.713 49.5236C184.167 46.6236 185.267 43.9483 186.912 41.6483C190.084 37.2198 198.212 32.5871 208.341 35.6967C209.762 36.1363 211.028 36.6891 212.139 37.3324C214.424 38.6454 216.096 40.3348 217.303 42.1678C219.695 45.8033 220.223 49.9953 219.989 52.9232Z" fill="#00CCB2"/>
<path fill-rule="evenodd" clip-rule="evenodd" d="M219.989 52.9232C219.572 58.0433 216.593 66.6369 216.593 66.6369C216.988 64.6479 217.047 61.6777 216.395 59.2067C216.646 59.0346 216.881 58.7831 217.068 58.4127C217.853 56.8852 218.008 54.6013 218.056 53.2551C218.109 51.9045 218.729 51.9957 218.884 50.3653C219 49.1113 218.445 44.9825 217.303 42.1678C219.695 45.8034 220.223 49.9954 219.989 52.9232Z" fill="#00A48F"/>
<path fill-rule="evenodd" clip-rule="evenodd" d="M212.219 54.5204C208.791 53.2605 203.333 52.7893 199.59 53.2016C194.559 53.7538 191.942 55.8983 190.495 59.3569C189.31 62.1871 189.524 68.1114 189.636 70.1702C189.529 68.5671 189.245 64.782 188.962 63.758C188.6 62.4397 189.171 59.1205 190.1 57.823C191.029 56.5202 191.648 54.7563 192.813 53.668C193.977 52.5796 194.543 52.5796 197.518 52.2151C200.486 51.851 201.966 51.3519 203.626 51.7058C205.292 52.0596 206.532 52.2687 208.032 52.5796C209.533 52.8906 212.219 54.5204 212.219 54.5204Z" fill="#00DABE"/>
<path fill-rule="evenodd" clip-rule="evenodd" d="M208.342 35.6968C198.211 32.5872 190.084 37.22 186.912 41.6484C185.267 43.9484 184.167 46.6237 183.713 49.5237C183.713 49.5349 183.708 49.5398 183.702 49.551C183.228 51.4913 183.061 55.6356 183.425 59.3671C183.745 56.6548 184.344 51.5454 184.567 49.8888C184.808 48.1104 185.815 45.6507 187.311 43.4482C186.99 44.7296 187.23 45.6485 187.23 45.6485C187.439 47.4199 189.066 46.1455 189.893 44.9001C190.72 43.6552 192.477 42.3577 194.079 40.6609C195.559 39.0927 195.449 37.3561 194.808 36.8956C195.932 36.4238 197.194 36.0823 198.639 35.9381C203.482 35.4561 205.25 36.4099 207.723 36.3884C208.769 36.3831 210.494 36.8232 212.139 37.3326C211.028 36.6892 209.762 36.1364 208.342 35.6968Z" fill="#00DABE"/>
<path fill-rule="evenodd" clip-rule="evenodd" d="M213.335 85.7718C212.71 89.6587 211.204 97.0413 208.241 101.25C208.241 101.25 195.349 92.5217 190.864 83.9918C195.472 82.5121 195.542 81.3809 195.542 81.3809C196.401 82.0296 197.229 82.5604 198.03 82.9946C202.548 85.4501 206.099 84.796 208.171 83.9221C209.479 83.3699 210.195 82.7319 210.195 82.7319C210.542 84.0454 212.977 85.552 213.298 85.7503C213.324 85.7664 213.335 85.7718 213.335 85.7718Z" fill="white"/>
<path fill-rule="evenodd" clip-rule="evenodd" d="M233.708 143.82L233.7 143.835C233.536 144.312 233.296 144.865 232.953 145.494V145.502C232.279 146.722 231.226 148.199 229.566 149.821C229.319 150.056 229.057 150.29 228.795 150.526C223.876 154.92 212.727 159.171 208.533 159.467C206.709 159.595 200.144 158.208 193.16 156.503C193.108 156.496 193.086 156.488 193.086 156.488C184.009 154.276 174.266 151.556 173.369 150.965C169.459 148.389 167.582 144.365 167.148 142.13C167.066 141.729 167.014 141.206 166.984 140.622C166.827 137.948 167.081 133.947 167.081 133.947L181.758 136L181.377 139.107L181.183 140.721C181.183 140.721 187.695 143.926 192.906 147.01C198.11 150.093 207.808 152.132 207.808 152.132L207.816 152.124C210.858 148.616 216.054 147.585 216.683 147.01C217.311 146.426 222.134 141.577 223.001 141.433C223.876 141.282 223.584 143.04 222.717 145.244C221.887 147.351 219.397 149.055 219.195 149.192C219.457 149.124 223.689 147.904 226.254 146.426C226.254 146.426 226.261 146.426 226.276 146.419C227.016 145.987 227.614 145.54 227.928 145.093C229.371 143.04 230.964 139.819 231.831 139.819C231.936 139.819 232.026 139.85 232.115 139.91C232.758 140.334 232.983 142.13 232.983 142.13C232.983 142.13 233.857 141.721 233.999 142.13C234.052 142.282 234.029 142.888 233.708 143.82Z" fill="#58BAD3"/>
<path fill-rule="evenodd" clip-rule="evenodd" d="M232.115 139.91C231.42 140.417 230.171 142.108 229.191 143.82C228.107 145.707 226.47 146.351 226.276 146.419C227.016 145.987 227.614 145.54 227.928 145.093C229.371 143.04 230.964 139.819 231.831 139.819C231.936 139.819 232.025 139.85 232.115 139.91Z" fill="#85E4E0"/>
<path fill-rule="evenodd" clip-rule="evenodd" d="M223.001 141.433C223.001 141.433 220.676 143.206 219.749 145.267C218.821 147.328 215.987 148.101 213.64 149.055C211.367 149.98 208.025 152.003 207.815 152.124C210.859 148.616 216.055 147.586 216.683 147.01C217.311 146.426 222.134 141.577 223.001 141.433Z" fill="#85E4E0"/>
<path fill-rule="evenodd" clip-rule="evenodd" d="M233.701 143.835C233.536 144.313 233.296 144.865 232.953 145.495V145.502C232.28 146.722 231.225 148.199 229.566 149.821C229.319 150.056 229.057 150.29 228.795 150.525C223.876 154.92 212.728 159.17 208.533 159.466C206.709 159.595 200.144 158.209 193.16 156.504C194.222 156.67 206.425 158.572 208.922 158.292C211.524 158.004 223.561 153.393 226.694 151.351C231.976 147.909 233.468 144.168 233.701 143.835Z" fill="#0099B8"/>
<path fill-rule="evenodd" clip-rule="evenodd" d="M206.692 158.252C206.628 158.654 206.558 159.018 206.489 159.324C206.324 160.058 206.174 160.497 206.174 160.497C206.174 160.497 205.447 160.289 203.381 159.978C201.315 159.667 175.063 153.646 172.269 151.78C172.264 151.78 172.264 151.775 172.259 151.775C169.477 149.904 166.838 145.534 166.379 142.923C166.315 142.554 166.245 141.792 166.192 140.715C165.872 134.147 166.053 115.72 170.325 101.003C172.979 91.8623 176.936 89.728 177.166 89.5993L177.177 89.5891C177.364 89.6534 177.535 89.7178 177.705 89.7977C177.748 89.8089 177.797 89.8245 177.839 89.8459C186.33 93.4809 186.17 109.565 184.653 122.004C184.354 124.448 184.001 126.754 183.654 128.791C183.612 129.048 183.564 129.3 183.516 129.557C182.875 133.236 182.261 135.943 182.036 136.881C182.005 137.004 181.978 137.128 181.951 137.245C181.545 139.127 181.262 140.366 181.262 140.366C181.262 140.366 186.842 142.752 193.16 146.628C199.477 150.499 206.324 151.657 206.324 151.657C206.339 151.705 206.355 151.759 206.367 151.807C206.393 151.882 206.414 151.957 206.436 152.032C207.087 154.327 206.948 156.627 206.692 158.252Z" fill="#FCB0BA"/>
<path fill-rule="evenodd" clip-rule="evenodd" d="M186.495 153.925C189.117 154.847 200.428 157.437 201.544 157.694C200.304 157.501 186.896 155.357 178.832 153.373C176.44 152.789 174.234 152.284 172.259 151.775C169.476 149.904 166.838 145.535 166.379 142.923C166.315 142.554 166.245 141.792 166.192 140.715C166.849 141.53 170.405 145.963 172.028 147.776C173.823 149.775 183.74 152.954 186.495 153.925Z" fill="#DB909A"/>
<path fill-rule="evenodd" clip-rule="evenodd" d="M90.3528 164.091L89.6426 172.611L88.7139 183.693L87.8702 193.767C87.8162 193.777 87.758 193.782 87.694 193.788C87.2502 193.836 86.0273 193.954 84.8738 193.868C83.7844 193.793 81.9902 192.474 80.5964 191.032C80.5857 191.021 80.5702 191.005 80.5537 190.989C80.4896 190.931 80.4308 190.861 80.3667 190.785C79.9983 190.394 79.6672 189.997 79.3948 189.616C78.0491 187.745 76.8107 183.494 76.7088 180.797C76.6345 178.937 76.7942 171.908 76.8957 167.705V167.667C76.9443 165.78 76.9811 164.472 76.9811 164.472L90.3528 164.091Z" fill="#58BAD3"/>
<path fill-rule="evenodd" clip-rule="evenodd" d="M88.7134 183.692L87.8696 193.766C87.8157 193.777 87.7575 193.782 87.6934 193.788C86.3156 193.906 82.9353 192.758 82.0109 191.171C81.0497 189.514 81.392 184.737 81.6697 182.663C81.9415 180.588 82.978 177.404 83.2552 176.369C83.4854 175.489 83.7198 173.828 83.7844 173.329C83.7038 174.213 83.5281 178.706 83.5281 180.106C83.5281 181.628 84.2864 183.355 84.633 183.772C84.9753 184.186 86.4919 184.116 86.9719 184.116C87.3084 184.116 88.19 183.853 88.7134 183.692Z" fill="#0099B8"/>
<path fill-rule="evenodd" clip-rule="evenodd" d="M80.3667 190.785C79.9988 190.394 79.6671 189.997 79.3953 189.616C78.0491 187.745 76.8107 183.494 76.7087 180.797C76.6345 178.937 76.7947 171.908 76.8956 167.705C76.9228 168.364 77.2748 177.049 77.2748 178.095C77.2748 179.189 78.001 184.373 78.2579 185.467C78.5035 186.485 79.4434 189.622 80.3667 190.785Z" fill="#85E4E0"/>
<path fill-rule="evenodd" clip-rule="evenodd" d="M90.3527 164.091L89.6424 172.611C89.1511 170.702 88.5637 168.209 88.1798 167.705C87.5603 166.89 76.981 164.472 76.981 164.472L90.3527 164.091Z" fill="#0099B8"/>
<path fill-rule="evenodd" clip-rule="evenodd" d="M90.3526 164.885L81.8244 164.622L76.9808 164.471L76.7085 161.7L84.457 161.818L90.1443 161.909L90.3526 164.885Z" fill="#00CCB2"/>
<path fill-rule="evenodd" clip-rule="evenodd" d="M90.3527 164.885L81.8245 164.622L84.4572 161.818L90.1444 161.909L90.3527 164.885Z" fill="#00A48F"/>
<path fill-rule="evenodd" clip-rule="evenodd" d="M93.4496 103.594C93.1292 108.387 92.7501 114.611 92.3661 121.206C92.3495 121.566 92.3282 121.919 92.3068 122.278C91.234 140.866 90.1446 161.91 90.1446 161.91L84.4568 161.818L76.7083 161.7C76.7083 161.7 74.2251 156.516 74.2251 152.361C74.2251 148.27 75.2296 129.87 75.2611 121.983V121.646C75.2611 121.415 75.2664 121.168 75.2718 120.911C75.5179 112.563 79.6833 89.9976 82.2892 79.9344C84.9753 69.5549 93.0384 60.0117 93.0384 60.0117C93.0384 60.0117 93.2793 63.6949 93.5137 69.2707C93.8827 78.267 94.2186 92.1958 93.4496 103.594Z" fill="white"/>
<path fill-rule="evenodd" clip-rule="evenodd" d="M93.4501 103.594C92.2117 122.064 90.1451 161.91 90.1451 161.91L84.4573 161.818L87.2507 158.172C87.2507 158.172 87.4584 136.384 87.4584 131.194C87.4584 126.004 88.4891 111.062 89.7333 96.1203C90.6465 85.1296 92.5583 74.2568 93.5142 69.2708C93.8832 78.2671 94.2191 92.1958 93.4501 103.594Z" fill="#D0D0D0"/>
<path fill-rule="evenodd" clip-rule="evenodd" d="M92.3662 121.206C92.3502 121.566 92.3288 121.919 92.3075 122.278C84.7453 122.09 77.6327 122.01 75.2617 121.983V121.645C75.2617 121.415 75.2665 121.169 75.2719 120.911C77.6541 120.938 84.7933 121.018 92.3662 121.206Z" fill="#B4B4B4"/>
<path fill-rule="evenodd" clip-rule="evenodd" d="M164.821 181.682C164.725 184.261 163.539 188.329 162.247 190.12C161.991 190.485 161.67 190.86 161.318 191.235C161.259 191.311 161.2 191.375 161.142 191.434C161.126 191.45 161.11 191.46 161.099 191.472C159.764 192.855 158.05 194.114 157.008 194.19C155.903 194.27 154.734 194.158 154.312 194.109C154.248 194.104 154.194 194.098 154.141 194.088L153.334 184.448L153.025 180.759L151.764 165.694L164.559 166.058C164.559 166.058 164.597 167.308 164.639 169.115V169.152C164.736 173.173 164.89 179.902 164.821 181.682Z" fill="#58BAD3"/>
<path fill-rule="evenodd" clip-rule="evenodd" d="M153.333 184.45L154.14 194.089C154.191 194.1 154.248 194.105 154.309 194.11C155.628 194.223 158.862 193.125 159.746 191.607C160.666 190.021 160.339 185.45 160.073 183.465C159.813 181.48 158.821 178.432 158.555 177.443C158.336 176.601 158.111 175.011 158.049 174.534C158.126 175.38 158.295 179.679 158.295 181.018C158.295 182.475 157.569 184.127 157.237 184.527C156.91 184.922 155.458 184.855 154.999 184.855C154.677 184.855 153.834 184.604 153.333 184.45Z" fill="#0099B8"/>
<path fill-rule="evenodd" clip-rule="evenodd" d="M161.32 191.237C161.672 190.863 161.989 190.483 162.25 190.119C163.538 188.328 164.723 184.26 164.82 181.68C164.891 179.9 164.738 173.175 164.641 169.152C164.616 169.783 164.278 178.094 164.278 179.095C164.278 180.141 163.584 185.102 163.338 186.148C163.103 187.123 162.204 190.124 161.32 191.237Z" fill="#85E4E0"/>
<path fill-rule="evenodd" clip-rule="evenodd" d="M160.02 167.169C158.093 167.512 153.057 168.825 153.057 168.825C153.057 168.825 153.399 171.661 153.334 173.393C153.266 175.125 153.057 180.797 153.057 180.797L153.025 180.76L151.764 165.694L164.559 166.059C164.559 166.059 161.943 166.82 160.02 167.169Z" fill="#0099B8"/>
<path fill-rule="evenodd" clip-rule="evenodd" d="M164.976 163.153L164.559 166.059C164.559 166.059 163.075 166.118 161.088 166.171C157.388 166.273 151.935 166.354 151.124 165.989V162.949L158.466 163.056L164.976 163.153Z" fill="#00CCB2"/>
<path fill-rule="evenodd" clip-rule="evenodd" d="M161.088 166.171C157.388 166.273 151.935 166.354 151.124 165.989V162.949L158.466 163.056L161.088 166.171Z" fill="#00A48F"/>
<path fill-rule="evenodd" clip-rule="evenodd" d="M164.976 163.153C164.976 163.153 162.498 163.384 158.99 163.378C156.677 163.378 153.911 163.282 151.124 162.949C151.124 162.949 149.265 117.914 150.921 96.5384C151.556 88.304 151.978 80.9959 152.256 75.1199C152.699 65.7376 152.779 60.0117 152.779 60.0117C152.779 60.0117 157.121 62.2903 161.462 68.3116C165.804 74.3318 169.318 99.648 169.729 119.78C169.739 120.268 169.745 120.756 169.755 121.233C169.761 121.592 169.766 121.951 169.771 122.306C170.033 140.984 168.735 153.021 164.976 163.153Z" fill="white"/>
<path fill-rule="evenodd" clip-rule="evenodd" d="M154.637 143.026C154.637 143.026 154.961 133.773 155.254 122.982L166.008 121.44L155.286 121.818C155.449 115.684 155.6 109.15 155.673 103.594C155.881 87.8208 152.934 72.8257 152.934 72.8257L152.255 75.1198C151.978 80.9958 151.556 88.3038 150.92 96.5383C149.265 117.914 151.123 162.949 151.123 162.949C153.911 163.281 156.677 163.378 158.989 163.378L155.054 160.247L154.637 143.026Z" fill="#D0D0D0"/>
<path fill-rule="evenodd" clip-rule="evenodd" d="M169.771 122.305C160.11 122.059 150.808 121.978 150.707 121.978L150.717 120.906C150.819 120.906 160.105 120.986 169.755 121.233C169.76 121.592 169.765 121.951 169.771 122.305Z" fill="#B4B4B4"/>
<path fill-rule="evenodd" clip-rule="evenodd" d="M98.4819 56.2747L93.0387 60.0104C93.0387 60.0104 91.5915 99.8569 91.1776 109.196C90.7643 118.535 91.5915 144.27 91.5915 144.27L87.2505 197.606L154.019 198.644C154.019 198.644 151.125 143.025 151.125 142.194C151.125 141.364 153.812 93.8382 154.019 85.5368C154.226 77.2358 152.779 60.0104 152.779 60.0104L145.062 57.7967L98.4819 56.2747Z" fill="white"/>
<path fill-rule="evenodd" clip-rule="evenodd" d="M142.237 107.955H131.277V96.9518H114.747V107.955H103.788V124.55H114.747V135.553H131.277V124.55H142.237V107.955Z" fill="#F0F0F0"/>
<path fill-rule="evenodd" clip-rule="evenodd" d="M123.26 62.2783C123.113 62.3561 122.955 62.3925 122.792 62.4097C122.991 68.2557 123.75 91.4193 123.572 99.851C123.495 103.458 123.282 111.549 123.033 120.919C122.607 137.017 122.125 155.262 122.125 158.797C122.125 164.335 121.92 200.149 121.918 200.51L122.452 200.513C122.454 200.152 122.659 164.337 122.659 158.797C122.659 155.269 123.141 137.028 123.567 120.934C123.815 111.563 124.029 103.47 124.106 99.8628C124.287 91.3453 123.512 67.8498 123.321 62.2494C123.3 62.2574 123.282 62.2708 123.26 62.2783Z" fill="#D0D0D0"/>
<path fill-rule="evenodd" clip-rule="evenodd" d="M145.063 57.7975C145.063 57.7975 145.052 57.8029 145.036 57.8083C144.742 57.9423 142.222 59.0467 138.232 60.1243C136.379 60.623 134.211 61.1216 131.803 61.5129C131.782 61.5183 131.76 61.5183 131.739 61.5237C122.719 62.9766 110.33 62.9551 98.481 56.2749C98.481 56.2749 101.236 37.5961 101.236 28.0475C101.236 18.5044 103.441 9.64747 108.13 5.08498C112.813 0.517131 119.702 -0.726696 125.491 0.377737C128.07 0.870978 131.253 2.32926 134.121 4.37729C135.669 5.47636 137.122 6.75235 138.345 8.1463C139.947 9.96915 141.143 11.985 141.618 14.0759C142.43 17.6251 142.772 24.2892 142.969 30.6371C143.001 31.6718 143.033 32.7012 143.06 33.7091C143.065 33.9986 143.076 34.2881 143.081 34.5723C143.188 38.5825 143.263 42.1371 143.407 44.2387C143.824 50.1845 144.374 55.5833 145.063 57.7975Z" fill="white"/>
<path fill-rule="evenodd" clip-rule="evenodd" d="M142.968 30.6381L142.969 30.637C142.772 24.2892 142.43 17.6256 141.618 14.0759C141.143 11.9849 139.947 9.96909 138.345 8.14624C138.927 9.23459 139.546 10.4141 140.064 11.4488C141.511 14.3547 142.131 26.9055 142.131 26.9055C142.131 26.9055 135.931 27.9461 135.52 28.0475L135.15 30.4467C134.937 30.4676 134.72 30.489 134.516 30.5083L134.313 30.8193L135.141 40.3624C135.968 39.9496 138.169 36.765 139.824 35.6606C140.737 35.0499 142.072 34.733 143.082 34.5722C143.047 33.2984 143.01 31.9741 142.968 30.6381Z" fill="#D0D0D0"/>
<path fill-rule="evenodd" clip-rule="evenodd" d="M145.062 57.7974C145.062 57.7974 145.052 57.8028 145.036 57.8082C144.683 57.9261 140.764 59.2504 138.232 60.1243C137.645 60.3226 137.132 60.4996 136.758 60.6336C135.979 60.907 134.014 61.2394 131.803 61.5128C131.781 61.5182 131.76 61.5182 131.739 61.5236C128.113 61.9739 123.841 62.2634 123.013 61.8774C123.013 61.8774 131.899 59.5935 133.966 58.4515C136.032 57.3096 141.618 50.4632 141.719 46.4153C141.821 42.3675 141.821 38.947 141.821 38.947L141.511 33.6554L143.06 33.709C143.065 33.9985 143.076 34.288 143.081 34.5722C143.188 38.5825 143.263 42.137 143.407 44.2387C143.823 50.1844 144.374 55.5832 145.062 57.7974Z" fill="#D0D0D0"/>
<mask id="mask0" mask-type="alpha" maskUnits="userSpaceOnUse" x="108" y="17" width="29" height="34">
<path fill-rule="evenodd" clip-rule="evenodd" d="M118.939 17.6208C114.454 18.2987 110.919 20.3315 109.968 23.7197C109.016 27.1074 108.846 47.7394 108.846 48.1464C108.846 48.9598 113.758 51.1486 122.202 50.9921C130.5 50.8398 135.966 48.5528 135.966 48.5528C135.966 48.5528 137.563 23.3127 135.388 20.1955C133.861 18.0078 128.585 17.2894 124.024 17.2894C122.086 17.2894 120.277 17.4191 118.939 17.6208Z" fill="white"/>
</mask>
<g mask="url(#mask0)">
<path fill-rule="evenodd" clip-rule="evenodd" d="M136.931 26.2554C136.572 23.4538 135.729 20.6449 133.508 18.7659C130.709 16.3981 126.715 15.862 123.194 15.6225C119.419 15.3652 115.113 14.943 112.089 17.6941C110.612 19.039 109.335 20.835 108.162 22.4471C106.921 24.1533 105.805 26.0811 105.747 28.2483C105.744 28.3822 105.793 28.4836 105.865 28.5571C105.728 30.7474 105.837 32.9351 105.918 35.1276C105.997 37.2885 106.062 39.3596 106.613 41.4675C107.07 43.2136 107.723 44.9376 108.752 46.4269C109.833 47.9913 111.227 49.3004 112.687 50.5004C114.206 51.7502 115.795 52.9559 117.4 54.0928C118.705 55.0176 120.17 55.7995 121.816 55.6567C123.785 55.4865 125.742 54.1522 127.368 53.1156C129.152 51.9781 130.858 50.6905 132.396 49.2322C135.252 46.5262 136.421 42.9295 137.012 39.1144C137.663 34.9165 137.469 30.4607 136.931 26.2554Z" fill="#FFC6AD"/>
</g>
<mask id="mask1" mask-type="alpha" maskUnits="userSpaceOnUse" x="108" y="17" width="29" height="34">
<path fill-rule="evenodd" clip-rule="evenodd" d="M118.939 17.6208C114.454 18.2987 110.919 20.3315 109.968 23.7197C109.016 27.1074 108.846 47.7394 108.846 48.1464C108.846 48.9598 113.758 51.1486 122.202 50.9921C130.5 50.8398 135.966 48.5528 135.966 48.5528C135.966 48.5528 137.563 23.3127 135.388 20.1955C133.861 18.0078 128.585 17.2894 124.024 17.2894C122.086 17.2894 120.277 17.4191 118.939 17.6208Z" fill="white"/>
</mask>
<g mask="url(#mask1)">
<path fill-rule="evenodd" clip-rule="evenodd" d="M122.286 38.1983C122.213 37.774 122.28 37.326 122.266 36.8996C122.252 36.4417 122.078 35.9297 122.23 35.4823C122.287 35.3148 122.031 35.2496 121.969 35.4098C121.787 35.8793 121.943 36.4133 121.932 36.8996C121.921 37.4436 121.787 37.9987 121.949 38.5333C121.985 38.6541 122.128 38.7213 122.24 38.6525C122.811 38.3049 124.018 38.7428 123.918 39.5269C123.874 39.8734 123.566 40.147 123.297 40.3345C123.152 40.4364 122.997 40.5251 122.838 40.6029C122.696 40.6727 122.528 40.7105 122.422 40.835C122.331 40.94 122.348 41.1474 122.511 41.1763C122.926 41.2504 123.474 40.8129 123.77 40.5593C124.12 40.2584 124.416 39.8293 124.361 39.3457C124.259 38.4435 123.104 37.9084 122.286 38.1983Z" fill="#C17E67"/>
</g>
<mask id="mask2" mask-type="alpha" maskUnits="userSpaceOnUse" x="108" y="17" width="29" height="34">
<path fill-rule="evenodd" clip-rule="evenodd" d="M118.939 17.6208C114.454 18.2987 110.919 20.3315 109.968 23.7197C109.016 27.1074 108.846 47.7394 108.846 48.1464C108.846 48.9598 113.758 51.1486 122.202 50.9921C130.5 50.8398 135.966 48.5528 135.966 48.5528C135.966 48.5528 137.563 23.3127 135.388 20.1955C133.861 18.0078 128.585 17.2894 124.024 17.2894C122.086 17.2894 120.277 17.4191 118.939 17.6208Z" fill="white"/>
</mask>
<g mask="url(#mask2)">
<path fill-rule="evenodd" clip-rule="evenodd" d="M126.225 45.9379C125.875 46.0692 125.568 46.284 125.215 46.4142C124.844 46.5513 124.454 46.6521 124.068 46.7346C123.262 46.9063 122.44 46.901 121.622 46.8433C120.95 46.7955 120.274 46.7382 119.611 46.6154C118.931 46.4898 118.188 46.3381 117.645 45.8838C117.49 45.7552 117.267 45.9715 117.421 46.1086C118.513 47.0801 120.077 47.1941 121.462 47.3295C122.355 47.4167 123.253 47.4524 124.143 47.3117C124.887 47.1941 125.954 46.9646 126.472 46.3643C126.623 46.19 126.483 45.8408 126.225 45.9379Z" fill="#FF6969"/>
</g>
<mask id="mask3" mask-type="alpha" maskUnits="userSpaceOnUse" x="108" y="17" width="29" height="34">
<path fill-rule="evenodd" clip-rule="evenodd" d="M118.939 17.6208C114.454 18.2987 110.919 20.3315 109.968 23.7197C109.016 27.1074 108.846 47.7394 108.846 48.1464C108.846 48.9598 113.758 51.1486 122.202 50.9921C130.5 50.8398 135.966 48.5528 135.966 48.5528C135.966 48.5528 137.563 23.3127 135.388 20.1955C133.861 18.0078 128.585 17.2894 124.024 17.2894C122.086 17.2894 120.277 17.4191 118.939 17.6208Z" fill="white"/>
</mask>
<g mask="url(#mask3)">
<path fill-rule="evenodd" clip-rule="evenodd" d="M128.892 32.0996C128.89 31.8261 128.847 31.4166 128.484 31.4166C128.123 31.4166 128.075 31.8261 128.085 32.0996C128.092 32.3044 128.101 32.5091 128.111 32.7144C128.121 32.9396 128.138 33.158 128.175 33.3806C128.21 33.5964 128.213 33.8542 128.386 34.0054C128.473 34.0815 128.585 34.082 128.673 34.0054C128.852 33.8484 128.848 33.5733 128.874 33.3507C128.899 33.136 128.904 32.9307 128.9 32.7144C128.897 32.5091 128.893 32.3044 128.892 32.0996Z" fill="#00143B"/>
</g>
<mask id="mask4" mask-type="alpha" maskUnits="userSpaceOnUse" x="108" y="17" width="29" height="34">
<path fill-rule="evenodd" clip-rule="evenodd" d="M118.939 17.6208C114.454 18.2987 110.919 20.3315 109.968 23.7197C109.016 27.1074 108.846 47.7394 108.846 48.1464C108.846 48.9598 113.758 51.1486 122.202 50.9921C130.5 50.8398 135.966 48.5528 135.966 48.5528C135.966 48.5528 137.563 23.3127 135.388 20.1955C133.861 18.0078 128.585 17.2894 124.024 17.2894C122.086 17.2894 120.277 17.4191 118.939 17.6208Z" fill="white"/>
</mask>
<g mask="url(#mask4)">
<path fill-rule="evenodd" clip-rule="evenodd" d="M130.828 28.5023C130.485 28.3164 130.055 28.2938 129.671 28.2576C129.241 28.2171 128.808 28.2092 128.378 28.2392C127.569 28.2954 126.707 28.4755 126.051 28.9812C125.849 29.1366 126.02 29.4654 126.255 29.3341C126.925 28.9623 127.688 28.8027 128.446 28.757C128.832 28.7339 129.22 28.7412 129.605 28.7743C129.975 28.8053 130.351 28.9182 130.72 28.9045C130.924 28.8972 131.023 28.6084 130.828 28.5023Z" fill="#00143B"/>
</g>
<mask id="mask5" mask-type="alpha" maskUnits="userSpaceOnUse" x="108" y="17" width="29" height="34">
<path fill-rule="evenodd" clip-rule="evenodd" d="M118.939 17.6208C114.454 18.2987 110.919 20.3315 109.968 23.7197C109.016 27.1074 108.846 47.7394 108.846 48.1464C108.846 48.9598 113.758 51.1486 122.202 50.9921C130.5 50.8398 135.966 48.5528 135.966 48.5528C135.966 48.5528 137.563 23.3127 135.388 20.1955C133.861 18.0078 128.585 17.2894 124.024 17.2894C122.086 17.2894 120.277 17.4191 118.939 17.6208Z" fill="white"/>
</mask>
<g mask="url(#mask5)">
<path fill-rule="evenodd" clip-rule="evenodd" d="M115.515 32.0996C115.516 31.8261 115.56 31.4166 115.923 31.4166C116.283 31.4166 116.331 31.8261 116.321 32.0996C116.314 32.3044 116.304 32.5091 116.295 32.7144C116.285 32.9396 116.268 33.158 116.231 33.3806C116.196 33.5964 116.194 33.8542 116.02 34.0054C115.933 34.0815 115.821 34.082 115.733 34.0054C115.553 33.8484 115.558 33.5733 115.532 33.3507C115.507 33.136 115.503 32.9307 115.506 32.7144C115.509 32.5091 115.513 32.3044 115.515 32.0996Z" fill="#00143B"/>
</g>
<mask id="mask6" mask-type="alpha" maskUnits="userSpaceOnUse" x="108" y="17" width="29" height="34">
<path fill-rule="evenodd" clip-rule="evenodd" d="M118.939 17.6208C114.454 18.2987 110.919 20.3315 109.968 23.7197C109.016 27.1074 108.846 47.7394 108.846 48.1464C108.846 48.9598 113.758 51.1486 122.202 50.9921C130.5 50.8398 135.966 48.5528 135.966 48.5528C135.966 48.5528 137.563 23.3127 135.388 20.1955C133.861 18.0078 128.585 17.2894 124.024 17.2894C122.086 17.2894 120.277 17.4191 118.939 17.6208Z" fill="white"/>
</mask>
<g mask="url(#mask6)">
<path fill-rule="evenodd" clip-rule="evenodd" d="M113.578 28.5023C113.921 28.3164 114.351 28.2938 114.735 28.2576C115.165 28.2171 115.598 28.2092 116.028 28.2392C116.837 28.2954 117.699 28.4755 118.355 28.9812C118.557 29.1366 118.387 29.4654 118.151 29.3341C117.481 28.9623 116.718 28.8027 115.96 28.757C115.573 28.7339 115.186 28.7412 114.801 28.7743C114.431 28.8053 114.055 28.9182 113.687 28.9045C113.482 28.8972 113.384 28.6084 113.578 28.5023Z" fill="#00143B"/>
</g>
<mask id="mask7" mask-type="alpha" maskUnits="userSpaceOnUse" x="108" y="17" width="29" height="34">
<path fill-rule="evenodd" clip-rule="evenodd" d="M118.939 17.6208C114.454 18.2987 110.919 20.3315 109.968 23.7197C109.016 27.1074 108.846 47.7394 108.846 48.1464C108.846 48.9598 113.758 51.1486 122.202 50.9921C130.5 50.8398 135.966 48.5528 135.966 48.5528C135.966 48.5528 137.563 23.3127 135.388 20.1955C133.861 18.0078 128.585 17.2894 124.024 17.2894C122.086 17.2894 120.277 17.4191 118.939 17.6208Z" fill="white"/>
</mask>
<g mask="url(#mask7)">
<path fill-rule="evenodd" clip-rule="evenodd" d="M137.798 24.7705C137.798 24.7705 126.078 21.9242 118.835 22.3286C115.164 22.5386 112.514 23.3421 110.797 24.0878C110.176 24.3556 109.68 24.6182 109.296 24.844C108.648 25.2168 108.337 25.4794 108.337 25.4794C108.337 25.4794 106.91 21.8245 107.115 19.078C107.315 16.3316 110.476 12.9812 113.331 11.453C114.658 10.7441 118.503 10.9384 122.665 11.5791C125.894 12.078 129.318 12.8499 131.905 13.6849H131.909C133.153 14.0892 134.201 14.5041 134.943 14.9084C136.94 16.0007 137.694 18.2168 137.93 20.2701C137.993 20.7999 138.02 21.3203 138.026 21.8082C138.041 23.4839 137.798 24.7705 137.798 24.7705Z" fill="#F5BB40"/>
</g>
<mask id="mask8" mask-type="alpha" maskUnits="userSpaceOnUse" x="108" y="17" width="29" height="34">
<path fill-rule="evenodd" clip-rule="evenodd" d="M118.939 17.6208C114.454 18.2987 110.919 20.3315 109.968 23.7197C109.016 27.1074 108.846 47.7394 108.846 48.1464C108.846 48.9598 113.758 51.1486 122.202 50.9921C130.5 50.8398 135.966 48.5528 135.966 48.5528C135.966 48.5528 137.563 23.3127 135.388 20.1955C133.861 18.0078 128.585 17.2894 124.024 17.2894C122.086 17.2894 120.277 17.4191 118.939 17.6208Z" fill="white"/>
</mask>
<g mask="url(#mask8)">
<path fill-rule="evenodd" clip-rule="evenodd" d="M138.025 21.8083L136.745 22.6328C136.745 22.6328 133.758 21.2097 131.446 20.0602C129.134 18.9096 125.125 18.7053 125.125 18.7053C125.125 18.7053 118.261 19.1091 115.881 20.1284C114.069 20.9004 111.792 23.0849 110.797 24.0879C110.176 24.3558 109.68 24.6183 109.296 24.8436C108.279 24.7496 108.542 23.1789 108.542 23.1789L108.949 17.3505L113.026 11.9305L122.665 11.5792C125.894 12.0781 129.318 12.8495 131.905 13.6845H131.91L137.93 20.2697C137.993 20.8001 138.02 21.32 138.025 21.8083Z" fill="#D5A237"/>
</g>
<mask id="mask9" mask-type="alpha" maskUnits="userSpaceOnUse" x="108" y="17" width="29" height="34">
<path fill-rule="evenodd" clip-rule="evenodd" d="M118.939 17.6208C114.454 18.2987 110.919 20.3315 109.968 23.7197C109.016 27.1074 108.846 47.7394 108.846 48.1464C108.846 48.9598 113.758 51.1486 122.202 50.9921C130.5 50.8398 135.966 48.5528 135.966 48.5528C135.966 48.5528 137.563 23.3127 135.388 20.1955C133.861 18.0078 128.585 17.2894 124.024 17.2894C122.086 17.2894 120.277 17.4191 118.939 17.6208Z" fill="white"/>
</mask>
<g mask="url(#mask9)">
<path fill-rule="evenodd" clip-rule="evenodd" d="M136.271 48.7216C135.781 49.7776 134.069 51.2947 131.699 52.5918C128.128 54.5558 123.049 56.0262 118.398 54.6871C110.649 52.4506 109.085 51.363 108.201 48.2495C107.726 46.5795 107.821 44.3477 108.006 42.6353C108.048 42.2472 108.095 41.8896 108.143 41.5698C108.274 40.6508 108.406 40.0516 108.406 40.0516C108.406 40.0516 108.959 40.0936 109.817 40.1256C111.804 40.1939 115.422 40.1992 117.514 39.4372C119.241 38.8128 120.6 38.0561 121.954 37.825C122.049 37.8098 122.144 37.7935 122.238 37.7888C122.297 37.7778 122.349 37.7725 122.402 37.7725C122.797 37.7357 123.192 37.7568 123.603 37.8408C123.724 37.867 123.845 37.8991 123.971 37.9411C124.04 37.9563 124.103 37.9773 124.171 38.0041C124.456 38.1033 124.751 38.2457 125.057 38.4242C127.706 39.9833 130.904 40.593 132.874 40.4565C134.844 40.3194 136.745 39.6425 136.745 39.6425C136.745 39.6425 137.493 46.0807 136.271 48.7216Z" fill="#58BAD3"/>
</g>
<mask id="mask10" mask-type="alpha" maskUnits="userSpaceOnUse" x="108" y="17" width="29" height="34">
<path fill-rule="evenodd" clip-rule="evenodd" d="M118.939 17.6208C114.454 18.2987 110.919 20.3315 109.968 23.7197C109.016 27.1074 108.846 47.7394 108.846 48.1464C108.846 48.9598 113.758 51.1486 122.202 50.9921C130.5 50.8398 135.966 48.5528 135.966 48.5528C135.966 48.5528 137.563 23.3127 135.388 20.1955C133.861 18.0078 128.585 17.2894 124.024 17.2894C122.086 17.2894 120.277 17.4191 118.939 17.6208Z" fill="white"/>
</mask>
<g mask="url(#mask10)">
<path fill-rule="evenodd" clip-rule="evenodd" d="M136.745 39.6424C136.745 39.6424 134.844 40.3193 132.873 40.4564C130.903 40.5929 127.706 39.9833 125.057 38.4241C123.935 37.7625 122.944 37.6522 121.954 37.825C120.6 38.056 119.241 38.8127 117.513 39.4371C115.422 40.1991 111.803 40.1938 109.817 40.1256L108.142 41.5697C108.095 41.8895 108.048 42.2471 108.005 42.6352L109.153 42.8615C109.153 42.8615 113.741 42.7612 115.98 42.1521C117.687 41.6852 120.695 39.6897 122.212 38.6704C122.212 38.6704 122.212 38.6699 122.213 38.6699C122.419 39.017 122.692 39.5206 122.881 40.0515C123.223 40.9968 123.423 42.7612 123.492 43.7065C123.561 44.6575 123.561 45.4027 123.561 45.4027C123.561 45.4027 124.719 42.6252 125.33 42.4887C125.941 42.3516 127.095 42.2834 127.98 42.6252C128.865 42.9608 130.766 43.3026 130.766 43.3026L133.621 44.1843L134.706 47.4355C134.706 47.4355 132.262 48.9268 130.698 49.9398C129.134 50.9591 125.804 52.7178 125.804 52.7178L131.699 52.5918C134.069 51.2947 135.781 49.7776 136.271 48.7215C137.493 46.0806 136.745 39.6424 136.745 39.6424Z" fill="#0099B8"/>
</g>
<mask id="mask11" mask-type="alpha" maskUnits="userSpaceOnUse" x="108" y="17" width="29" height="34">
<path fill-rule="evenodd" clip-rule="evenodd" d="M118.939 17.6208C114.454 18.2987 110.919 20.3315 109.968 23.7197C109.016 27.1074 108.846 47.7394 108.846 48.1464C108.846 48.9598 113.758 51.1486 122.202 50.9921C130.5 50.8398 135.966 48.5528 135.966 48.5528C135.966 48.5528 137.563 23.3127 135.388 20.1955C133.861 18.0078 128.585 17.2894 124.024 17.2894C122.086 17.2894 120.277 17.4191 118.939 17.6208Z" fill="white"/>
</mask>
<g mask="url(#mask11)">
<path fill-rule="evenodd" clip-rule="evenodd" d="M114.318 44.6567C114.419 44.4803 117.105 44.2508 118.124 44.1148C119.144 43.9793 120.911 43.0304 120.707 43.6401C120.503 44.2508 119.212 44.7927 119.212 44.7927C119.212 44.7927 117.105 45.0632 116.017 45.1987C114.93 45.3347 114.046 45.1309 114.318 44.6567Z" fill="#85E4E0"/>
</g>
<mask id="mask12" mask-type="alpha" maskUnits="userSpaceOnUse" x="108" y="17" width="29" height="34">
<path fill-rule="evenodd" clip-rule="evenodd" d="M118.939 17.6208C114.454 18.2987 110.919 20.3315 109.968 23.7197C109.016 27.1074 108.846 47.7394 108.846 48.1464C108.846 48.9598 113.758 51.1486 122.202 50.9921C130.5 50.8398 135.966 48.5528 135.966 48.5528C135.966 48.5528 137.563 23.3127 135.388 20.1955C133.861 18.0078 128.585 17.2894 124.024 17.2894C122.086 17.2894 120.277 17.4191 118.939 17.6208Z" fill="white"/>
</mask>
<g mask="url(#mask12)">
<path fill-rule="evenodd" clip-rule="evenodd" d="M113.842 46.4866C113.985 46.2875 116.493 46.6898 117.24 46.5543C117.988 46.4188 119.756 46.0124 119.008 46.622C118.26 47.2317 116.153 47.164 116.153 47.164C116.153 47.164 113.163 47.4355 113.842 46.4866Z" fill="#85E4E0"/>
</g>
<path fill-rule="evenodd" clip-rule="evenodd" d="M143.507 31.4438V33.7389C143.507 34.2057 143.117 34.5877 142.639 34.5877H137.492V30.595H142.639C143.117 30.595 143.507 30.9728 143.507 31.4438Z" fill="#00CCB2"/>
<path fill-rule="evenodd" clip-rule="evenodd" d="M140.465 34.5877H137.492V30.595H139.581C139.887 31.753 140.272 33.3406 140.465 34.5877Z" fill="#00A48F"/>
<path fill-rule="evenodd" clip-rule="evenodd" d="M99.9624 31.4438V33.7389C99.9624 34.2057 100.353 34.5877 100.83 34.5877H105.977V30.595H100.83C100.353 30.595 99.9624 30.9728 99.9624 31.4438Z" fill="#00CCB2"/>
<path fill-rule="evenodd" clip-rule="evenodd" d="M103.005 34.5877H105.977V30.595H103.888C103.583 31.753 103.197 33.3406 103.005 34.5877Z" fill="#00A48F"/>
<path fill-rule="evenodd" clip-rule="evenodd" d="M106.044 38.2363L106.528 26.4047C106.528 26.4047 112.679 25.1199 116.964 25.1875C121.249 25.2556 135.694 26.0662 136.662 26.3371C137.63 26.6075 137.768 31.7457 137.768 32.9629C137.768 34.1801 137.338 37.858 136.032 38.5203C134.727 39.1831 129.613 39.3859 127.746 39.1155C125.88 38.8446 122.977 36.6811 121.388 37.1548C119.798 37.6279 116.204 38.9127 114.268 39.4535C112.334 39.9942 106.459 39.859 106.044 38.2363Z" fill="white"/>
<path fill-rule="evenodd" clip-rule="evenodd" d="M112.634 24.684C111.428 24.684 110.539 24.6939 110.122 24.7149C107.426 24.8495 105.906 25.5255 105.353 26.6075C104.8 27.689 105.353 38.1687 105.353 38.1687C105.56 39.9272 106.873 40.4679 110.26 40.4679C113.647 40.4679 116.826 39.5887 119.867 38.3039C120.682 37.9596 121.274 37.8192 121.764 37.8192C123.099 37.8192 123.673 38.8645 125.949 39.6563C127.11 40.0603 128.77 40.2567 130.469 40.2567C133.321 40.2567 136.28 39.7018 137.146 38.6424C138.528 36.952 138.805 31.7462 138.252 28.1627C137.85 25.5606 136.939 25.2043 136.47 25.2043C136.292 25.2043 136.178 25.2556 136.178 25.2556C135.302 24.9695 119.22 24.684 112.634 24.684ZM112.635 26.2554C120.033 26.2554 134.191 26.5477 135.753 26.773L136.269 26.9412L136.276 26.9381C136.391 27.1839 136.545 27.6298 136.662 28.3969C137.261 32.2733 136.729 36.6344 135.893 37.6572C135.58 38.0041 133.609 38.6842 130.469 38.6842C128.869 38.6842 127.418 38.4982 126.487 38.1744C125.602 37.8668 125.039 37.5241 124.495 37.1925C123.732 36.7272 122.943 36.2467 121.763 36.2467C121.026 36.2467 120.221 36.4416 119.23 36.8603C115.988 38.2299 113.054 38.8954 110.26 38.8954C109.712 38.8954 108.044 38.8954 107.293 38.5527C107.111 38.4694 107.007 38.4217 106.954 38.0324C106.722 33.6047 106.614 28.3303 106.832 27.2404C107.12 26.8338 108.136 26.3874 110.204 26.2836C110.462 26.2705 111.094 26.2554 112.634 26.2554H112.635Z" fill="#00CCB2"/>
<path fill-rule="evenodd" clip-rule="evenodd" d="M98.0269 57.3702C98.0269 57.3702 115.997 68.1879 144.749 58.8578C144.749 58.8578 140.188 63.1849 121.388 63.996C121.388 63.996 105.629 63.996 98.0269 57.3702Z" fill="#00CCB2"/>
</svg>
