<svg width="20" height="20" viewBox="0 0 20 20" fill="none" xmlns="http://www.w3.org/2000/svg">
<path fill-rule="evenodd" clip-rule="evenodd" d="M15.4 20C6.908 20 0 13.092 0 4.6C0 2.063 2.064 0 4.6 0C4.86 0 5.117 0.022 5.366 0.065C5.609 0.104 5.854 0.166 6.091 0.248C6.417 0.361 6.661 0.634 6.738 0.97L8.108 6.934C8.183 7.262 8.088 7.606 7.855 7.85C7.718 7.992 7.715 7.995 6.475 8.644C7.479 10.818 9.224 12.557 11.355 13.527C12.004 12.286 12.008 12.282 12.15 12.146C12.395 11.912 12.74 11.821 13.067 11.893L19.031 13.262C19.366 13.339 19.639 13.583 19.752 13.908C19.834 14.144 19.895 14.388 19.936 14.639C19.978 14.886 20 15.142 20 15.4C20 17.937 17.937 20 15.4 20" fill="#7ACEFA"/>
</svg>
